<svg width="19" height="25" viewBox="0 0 19 25" fill="none" xmlns="http://www.w3.org/2000/svg">
<path d="M5.23481 0.476257L9.08856 5.37376L11.5398 1.12751C11.7056 0.840415 11.9786 0.63093 12.2988 0.545133C12.619 0.459335 12.9602 0.504254 13.2473 0.670007L17.5773 3.17001C17.7543 3.27207 17.9036 3.41596 18.012 3.58908C18.1205 3.76219 18.1849 3.95926 18.1996 4.16304C18.2143 4.36681 18.1788 4.57108 18.0962 4.75796C18.0137 4.94484 17.8866 5.10863 17.7261 5.23501L12.8286 9.08751L17.0748 11.54C17.3619 11.7058 17.5714 11.9788 17.6572 12.299C17.743 12.6192 17.6981 12.9604 17.5323 13.2475L15.0323 17.5775C14.8733 17.8527 14.6154 18.057 14.3111 18.1488L15.1261 22.2263H15.3511C15.6826 22.2263 16.0005 22.358 16.2349 22.5924C16.4694 22.8268 16.6011 23.1447 16.6011 23.4763C16.6011 23.8078 16.4694 24.1257 16.2349 24.3601C16.0005 24.5946 15.6826 24.7263 15.3511 24.7263H2.85106C2.51954 24.7263 2.2016 24.5946 1.96718 24.3601C1.73276 24.1257 1.60106 23.8078 1.60106 23.4763C1.60106 23.1447 1.73276 22.8268 1.96718 22.5924C2.2016 22.358 2.51954 22.2263 2.85106 22.2263H3.07606L4.11356 17.0463L0.624813 15.0325C0.447912 14.9303 0.298749 14.7864 0.190378 14.6132C0.0820069 14.44 0.0177319 14.2429 0.0031769 14.0391C-0.0113781 13.8354 0.0242308 13.6311 0.106888 13.4443C0.189545 13.2575 0.31673 13.0938 0.477313 12.9675L5.37356 9.11376L1.12731 6.66376C0.840222 6.49799 0.630737 6.22497 0.54494 5.90476C0.459142 5.58454 0.504061 5.24336 0.669814 4.95626L3.16981 0.626257C3.27177 0.449196 3.41557 0.299825 3.58863 0.19122C3.76169 0.0826154 3.95873 0.0180874 4.16251 0.00328506C4.36629 -0.0115173 4.57059 0.0238571 4.75753 0.106312C4.94447 0.188767 5.10834 0.315788 5.23481 0.476257ZM9.30731 13.4763H8.89481L6.53856 17.6663L5.62606 22.2263H12.5761L11.6636 17.6663L9.30856 13.4763H9.30731ZM9.72606 17.2263C9.87235 17.2262 10.014 17.2775 10.1264 17.3711C10.2388 17.4648 10.3147 17.5949 10.3411 17.7388L10.3511 17.8513V19.1013C10.3511 19.2475 10.2998 19.3892 10.2062 19.5016C10.1126 19.614 9.98246 19.6899 9.83856 19.7163L9.72606 19.7263H8.47606C8.32978 19.7263 8.18812 19.675 8.07574 19.5814C7.96336 19.4877 7.88739 19.3576 7.86106 19.2138L7.85106 19.1013V17.8513C7.85101 17.705 7.90228 17.5633 7.99593 17.4509C8.08957 17.3386 8.21967 17.2626 8.36356 17.2363L8.47606 17.2263H9.72606ZM6.64731 11.2925L3.47356 13.7913L5.12356 14.7425L6.99856 11.495L6.64731 11.2925ZM11.4948 11.205L11.2936 11.555L13.7911 14.7288L14.7423 13.0788L11.4948 11.205ZM8.87231 8.24751L8.24731 9.33001L9.32981 9.95501L9.95481 8.87251L8.87231 8.24751ZM4.41106 3.47251L3.45981 5.12251L6.70731 6.99751L6.90856 6.64751L4.41106 3.47251ZM13.0798 3.46001L11.2048 6.70751L11.5548 6.90876L14.7286 4.41126L13.0798 3.46001Z" fill="#727272"/>
</svg>
