<svg width="23" height="24" viewBox="0 0 23 24" fill="none" xmlns="http://www.w3.org/2000/svg">
<path fill-rule="evenodd" clip-rule="evenodd" d="M7.5 3.5108e-06C8.20948 -0.000838255 8.91098 0.149699 9.55765 0.441562C10.2043 0.733426 10.7813 1.1599 11.25 1.6925C11.7187 1.1599 12.2957 0.733426 12.9424 0.441562C13.589 0.149699 14.2905 -0.000838255 15 3.5108e-06H15.625C16.1223 3.5108e-06 16.5992 0.197548 16.9508 0.549178C17.3025 0.900809 17.5 1.37772 17.5 1.875V2.5C17.5 3.41125 17.2563 4.265 16.8312 5H20C20.663 5 21.2989 5.2634 21.7678 5.73224C22.2366 6.20108 22.5 6.83696 22.5 7.5V11.25C22.5 11.6888 22.3845 12.1199 22.165 12.5C21.9456 12.88 21.63 13.1956 21.25 13.415V20C21.25 20.9946 20.8549 21.9484 20.1517 22.6517C19.4484 23.3549 18.4946 23.75 17.5 23.75H5C4.00544 23.75 3.05161 23.3549 2.34835 22.6517C1.64509 21.9484 1.25 20.9946 1.25 20V13.415C0.869961 13.1956 0.554373 12.88 0.334952 12.5C0.115532 12.1199 1.1148e-05 11.6888 0 11.25V7.5C0 6.83696 0.263392 6.20108 0.732233 5.73224C1.20107 5.2634 1.83696 5 2.5 5H5.66875C5.22931 4.24021 4.9986 3.37772 5 2.5V1.875C5 1.37772 5.19754 0.900809 5.54917 0.549178C5.90081 0.197548 6.37772 3.5108e-06 6.875 3.5108e-06H7.5ZM18.75 13.75H12.5V21.25H17.5L17.6463 21.2413C17.9253 21.2083 18.1851 21.0824 18.3837 20.8837C18.5824 20.6851 18.7083 20.4253 18.7412 20.1463L18.75 20V13.75ZM10 13.75H3.75V20C3.75004 20.3062 3.86244 20.6017 4.06589 20.8305C4.26934 21.0593 4.54969 21.2054 4.85375 21.2413L5 21.25H10V13.75ZM20 7.5H12.5V11.25H20V7.5ZM10 7.5H2.5V11.25H10V7.5ZM7.5 2.5C7.5 3.16304 7.76339 3.79893 8.23223 4.26777C8.70107 4.73661 9.33696 5 10 5C10 4.33696 9.73661 3.70108 9.26777 3.23224C8.79893 2.7634 8.16304 2.5 7.5 2.5ZM15 2.5C14.337 2.5 13.7011 2.7634 13.2322 3.23224C12.7634 3.70108 12.5 4.33696 12.5 5C13.163 5 13.7989 4.73661 14.2678 4.26777C14.7366 3.79893 15 3.16304 15 2.5Z" fill="#727272"/>
</svg>
