<svg width="23" height="25" viewBox="0 0 23 25" fill="none" xmlns="http://www.w3.org/2000/svg">
<path fill-rule="evenodd" clip-rule="evenodd" d="M17.12 0.394003C17.3934 0.140719 17.7523 0 18.125 0C18.4977 0 18.8566 0.140719 19.13 0.394003C19.48 0.716503 20.2925 1.509 21.0262 2.549C21.7375 3.559 22.5 4.974 22.5 6.519C22.5 8.9865 20.64 11.1715 18.125 11.1715C15.6112 11.1715 13.75 8.9865 13.75 6.519C13.75 4.97525 14.5125 3.559 15.225 2.549C15.7822 1.76843 16.4171 1.04639 17.12 0.394003ZM18.125 2.929C17.8175 3.26427 17.5311 3.61828 17.2675 3.989C16.655 4.85775 16.25 5.7515 16.25 6.519C16.25 7.809 17.1875 8.6715 18.125 8.6715C19.0625 8.6715 20 7.809 20 6.519C20 5.7515 19.595 4.85775 18.9825 3.989C18.7189 3.61828 18.4325 3.26427 18.125 2.929ZM2.135 4.12525C2.40624 3.87966 2.75909 3.74365 3.125 3.74365C3.49091 3.74365 3.84376 3.87966 4.115 4.12525C4.3725 4.35775 4.875 4.8415 5.3225 5.4665C5.75 6.06275 6.25 6.95525 6.25 7.9765C6.25 9.69775 4.89375 11.1715 3.125 11.1715C1.35625 11.1715 0 9.6965 0 7.9765C0 6.95525 0.5 6.06275 0.9275 5.4665C1.375 4.8415 1.8775 4.35775 2.135 4.12525ZM3.125 6.70525C3.06801 6.77622 3.01299 6.84875 2.96 6.92275C2.6375 7.3715 2.5 7.739 2.5 7.9765C2.5 8.404 2.8225 8.6715 3.125 8.6715C3.4275 8.6715 3.75 8.404 3.75 7.9765C3.75 7.739 3.6125 7.37275 3.29 6.92275C3.23701 6.84875 3.18199 6.77623 3.125 6.70525ZM9.0125 9.12275C9.28395 8.87959 9.63557 8.74513 10 8.74513C10.3644 8.74513 10.7161 8.87959 10.9875 9.12275C12.0626 10.0901 13.0386 11.162 13.9013 12.3228C15.055 13.8903 16.25 16.039 16.25 18.324C16.25 21.8865 13.53 24.9215 10 24.9215C6.47 24.9215 3.75 21.8878 3.75 18.324C3.75 16.039 4.945 13.8903 6.09875 12.3228C6.96164 11.1618 7.93814 10.0899 9.01375 9.12275H9.0125ZM10 11.629C9.475 12.149 8.7725 12.9065 8.1125 13.804C7.05375 15.2415 6.25 16.8515 6.25 18.324C6.25 20.6678 8.00625 22.4215 10 22.4215C11.9937 22.4215 13.75 20.6678 13.75 18.324C13.75 16.8515 12.9462 15.2428 11.8875 13.804C11.3142 13.0323 10.6832 12.3053 10 11.629Z" fill="#727272"/>
</svg>
