<svg width="25" height="25" viewBox="0 0 25 25" fill="none" xmlns="http://www.w3.org/2000/svg">
<path d="M12.5 0C19.4037 0 25 5.59625 25 12.5C25 13.3112 24.9225 14.105 24.775 14.875C24.2925 17.38 21.7788 18.4375 19.6725 18.0875L17.4975 17.725C17.2444 17.6828 16.9849 17.7016 16.7405 17.7799C16.4962 17.8582 16.274 17.9936 16.0925 18.175C15.63 18.6375 15.4088 19.2738 15.72 19.895C16.2488 20.9525 16.2563 22.16 15.7887 23.1487C15.1637 24.475 13.8875 25 12.5 25C5.59625 25 0 19.4037 0 12.5C0 5.59625 5.59625 0 12.5 0ZM12.5 2.5C9.84783 2.5 7.3043 3.55357 5.42893 5.42893C3.55357 7.3043 2.5 9.84783 2.5 12.5C2.5 15.1522 3.55357 17.6957 5.42893 19.5711C7.3043 21.4464 9.84783 22.5 12.5 22.5L12.7437 22.4975C13.0662 22.485 13.3687 22.4225 13.5287 22.0825C13.6014 21.9123 13.6351 21.7279 13.6273 21.543C13.6195 21.3581 13.5705 21.1773 13.4837 21.0138C12.6962 19.4363 13.1062 17.6263 14.325 16.4075C14.7878 15.9446 15.3544 15.5989 15.9778 15.3991C16.6011 15.1993 17.2631 15.1512 17.9087 15.2587L20.0837 15.6213C21.28 15.8212 22.1688 15.1863 22.32 14.4025C22.6006 12.9547 22.5574 11.4628 22.1937 10.0337C21.83 8.60454 21.1547 7.27353 20.2162 6.136C19.2777 4.99848 18.0993 4.0826 16.7652 3.454C15.4312 2.82539 13.9747 2.49961 12.5 2.5ZM6.875 11.25C7.12123 11.25 7.36505 11.2985 7.59253 11.3927C7.82002 11.487 8.02672 11.6251 8.20083 11.7992C8.37494 11.9733 8.51305 12.18 8.60727 12.4075C8.7015 12.635 8.75 12.8788 8.75 13.125C8.75 13.3712 8.7015 13.615 8.60727 13.8425C8.51305 14.07 8.37494 14.2767 8.20083 14.4508C8.02672 14.6249 7.82002 14.763 7.59253 14.8573C7.36505 14.9515 7.12123 15 6.875 15C6.37772 15 5.90081 14.8025 5.54917 14.4508C5.19754 14.0992 5 13.6223 5 13.125C5 12.6277 5.19754 12.1508 5.54917 11.7992C5.90081 11.4475 6.37772 11.25 6.875 11.25ZM15.625 6.25C16.1223 6.25 16.5992 6.44754 16.9508 6.79917C17.3025 7.15081 17.5 7.62772 17.5 8.125C17.5 8.62228 17.3025 9.09919 16.9508 9.45083C16.5992 9.80246 16.1223 10 15.625 10C15.1277 10 14.6508 9.80246 14.2992 9.45083C13.9475 9.09919 13.75 8.62228 13.75 8.125C13.75 7.62772 13.9475 7.15081 14.2992 6.79917C14.6508 6.44754 15.1277 6.25 15.625 6.25ZM9.375 6.25C9.87228 6.25 10.3492 6.44754 10.7008 6.79917C11.0525 7.15081 11.25 7.62772 11.25 8.125C11.25 8.62228 11.0525 9.09919 10.7008 9.45083C10.3492 9.80246 9.87228 10 9.375 10C8.87772 10 8.40081 9.80246 8.04917 9.45083C7.69754 9.09919 7.5 8.62228 7.5 8.125C7.5 7.62772 7.69754 7.15081 8.04917 6.79917C8.40081 6.44754 8.87772 6.25 9.375 6.25Z" fill="#727272"/>
</svg>
