<svg width="24" height="24" viewBox="0 0 24 24" fill="none" xmlns="http://www.w3.org/2000/svg">
<path d="M19.779 0.124668L20.2615 0.194668C21.0115 0.313418 21.8515 0.512169 22.3678 1.02842C22.8853 1.54592 23.084 2.38592 23.2028 3.13592L23.2728 3.61717C23.4303 4.75467 23.4715 6.24592 23.2028 7.90092C22.6728 11.1672 20.934 15.0634 16.5678 18.0822C16.5477 18.3053 16.5406 18.5294 16.5465 18.7534L16.5678 19.4322C16.5803 19.8847 16.5728 20.3359 16.4478 20.7697C16.2103 21.5947 15.364 22.1384 14.5728 22.5284L14.1853 22.7122L13.6853 22.9322L13.344 23.0697C12.4603 23.4072 11.394 23.6434 10.6965 22.9447C10.3803 22.6284 10.234 22.1984 10.1165 21.7684L10.059 21.5534C9.85903 20.7947 9.63278 20.0409 9.35028 19.3109C9.27223 19.4057 9.18964 19.4966 9.10278 19.5834C8.42153 20.2634 7.49778 20.6059 6.57403 20.8709L5.96028 21.0397L5.34778 21.2022L4.75028 21.3522L4.21029 21.4772L3.56403 21.6147L3.16028 21.6934C2.95887 21.731 2.75133 21.719 2.55562 21.6583C2.35991 21.5977 2.18191 21.4903 2.03704 21.3454C1.89216 21.2005 1.78475 21.0225 1.72412 20.8268C1.66348 20.6311 1.65144 20.4236 1.68903 20.2222L1.82778 19.5334L1.98904 18.8109L2.14403 18.1734L2.42528 17.1172C2.70404 16.0922 3.04278 15.0359 3.80028 14.2797L3.92403 14.1609L2.97028 13.8184L2.01153 13.4884C1.45028 13.3034 0.860285 13.1084 0.452785 12.7009C-0.292215 11.9559 0.0240349 10.7934 0.395285 9.87967L0.602785 9.39592L0.774035 9.01967C1.17028 8.17717 1.73278 7.20717 2.62778 6.94967C3.06153 6.82467 3.51153 6.81717 3.96528 6.82842L4.64403 6.85092C4.86903 6.85467 5.09403 6.85092 5.31528 6.82967C8.33278 2.46342 12.2303 0.724669 15.4965 0.194668C16.9129 -0.0388267 18.3558 -0.0624132 19.779 0.124668ZM15.8965 2.66217C13.149 3.10842 9.81028 4.57967 7.20529 8.49842C6.88903 8.97342 6.35528 9.19967 5.81153 9.28592C5.50403 9.33592 5.19403 9.34842 4.88278 9.34842L3.94903 9.33467C3.79403 9.33467 3.63778 9.33467 3.48278 9.34217C3.10278 9.84717 2.83779 10.4472 2.63903 11.0434L4.51404 11.7247L5.28528 12.0159C6.69528 12.5684 8.06028 13.2372 9.11028 14.2872C10.879 16.0559 11.7778 18.3697 12.4278 20.7334C12.9978 20.5334 13.5703 20.2784 14.0553 19.9147L14.0628 19.4484L14.049 18.5159C14.049 18.2059 14.0615 17.8959 14.1115 17.5859C14.1965 17.0422 14.424 16.5084 14.899 16.1922C18.8178 13.5872 20.289 10.2484 20.7353 7.50092C20.9603 6.11342 20.9228 4.87342 20.7965 3.95967C20.7481 3.58057 20.6674 3.2063 20.5553 2.84092C20.1899 2.72925 19.8156 2.64896 19.4365 2.60092C18.2598 2.44837 17.0671 2.46818 15.8965 2.66217ZM5.56653 16.0472C5.12903 16.5759 4.92528 17.2697 4.76153 17.9572L4.62653 18.5422L4.55779 18.8247L5.42528 18.6209C6.11278 18.4584 6.80779 18.2522 7.33529 17.8147C7.56967 17.5801 7.70128 17.2621 7.70116 16.9305C7.70105 16.5989 7.56921 16.2809 7.33466 16.0465C7.10011 15.8122 6.78206 15.6805 6.45047 15.6807C6.11888 15.6808 5.80092 15.8126 5.56653 16.0472ZM12.6378 7.20967C12.8699 6.97748 13.1455 6.79327 13.4488 6.66758C13.7521 6.54189 14.0772 6.47716 14.4055 6.4771C14.7338 6.47705 15.0589 6.54166 15.3622 6.66724C15.6656 6.79283 15.9412 6.97693 16.1734 7.20904C16.4056 7.44116 16.5898 7.71673 16.7155 8.02003C16.8412 8.32333 16.9059 8.64841 16.906 8.97673C16.906 9.30504 16.8414 9.63015 16.7158 9.93349C16.5903 10.2368 16.4061 10.5125 16.174 10.7447C15.7051 11.2136 15.0691 11.4771 14.4059 11.4771C13.7427 11.4771 13.1067 11.2136 12.6378 10.7447C12.1688 10.2757 11.9054 9.63972 11.9054 8.97654C11.9054 8.31337 12.1688 7.67735 12.6378 7.20842V7.20967Z" fill="#727272"/>
</svg>
