<svg width="23" height="23" viewBox="0 0 23 23" fill="none" xmlns="http://www.w3.org/2000/svg">
<path d="M2.93324 4.4375C2.86381 4.2887 2.76574 4.15503 2.64464 4.04412C2.52355 3.93322 2.38179 3.84725 2.22748 3.79113C2.07316 3.73501 1.90929 3.70983 1.74524 3.71704C1.5812 3.72424 1.42017 3.76369 1.27137 3.83313C1.12256 3.90256 0.988893 4.00063 0.877988 4.12172C0.767083 4.24282 0.681116 4.38457 0.624995 4.53889C0.568873 4.69321 0.543697 4.85707 0.550903 5.02112C0.558109 5.18517 0.597556 5.3462 0.666993 5.495L2.93324 4.4375ZM21.692 5.49C21.7664 5.34064 21.8101 5.17791 21.8206 5.01138C21.8311 4.84486 21.8081 4.67793 21.7531 4.52042C21.698 4.36291 21.612 4.21802 21.5001 4.09428C21.3881 3.97054 21.2526 3.87047 21.1013 3.79995C20.9501 3.72943 20.7863 3.6899 20.6196 3.68369C20.4529 3.67747 20.2866 3.70471 20.1305 3.76377C19.9745 3.82284 19.8318 3.91255 19.711 4.02762C19.5902 4.14268 19.4936 4.28077 19.427 4.43375L21.692 5.49ZM12.4295 1.25C12.4295 0.918479 12.2978 0.600537 12.0634 0.366116C11.829 0.131696 11.511 0 11.1795 0C10.848 0 10.53 0.131696 10.2956 0.366116C10.0612 0.600537 9.92949 0.918479 9.92949 1.25H12.4295ZM17.4295 17.8475C17.4295 18.0325 17.2295 18.5725 15.972 19.1375C14.8145 19.655 13.122 20 11.1795 20V22.5C13.3795 22.5 15.437 22.115 16.9932 21.4188C18.4495 20.7663 19.9295 19.6062 19.9295 17.8475H17.4295ZM11.1795 20C9.23699 20 7.54449 19.655 6.38699 19.1375C5.12824 18.5737 4.92949 18.0325 4.92949 17.8475H2.42949C2.42949 19.6062 3.90949 20.7663 5.36574 21.4188C6.92199 22.115 8.97949 22.5 11.1795 22.5V20ZM4.92949 17.8475C4.92949 17.1863 5.43574 16.175 6.63449 15.2612C7.94655 14.2799 9.54105 13.7497 11.1795 13.75V11.25C8.81699 11.25 6.67949 12.0825 5.11824 13.2738C3.60199 14.43 2.42949 16.0925 2.42949 17.8475H4.92949ZM11.1795 13.75C12.9607 13.75 14.572 14.3825 15.7245 15.2625C16.9232 16.175 17.4295 17.1875 17.4295 17.8475H19.9295C19.9295 16.0925 18.757 14.43 17.2407 13.2725C15.493 11.9592 13.3657 11.2494 11.1795 11.25V13.75ZM3.81949 7.81875C4.00699 8.2225 4.03324 8.6025 3.97824 8.8675C3.92199 9.13 3.81324 9.2 3.78074 9.215L4.83699 11.4813C5.74324 11.0588 6.24699 10.2238 6.42449 9.38125C6.60199 8.53875 6.47949 7.60875 6.08449 6.76125L3.81949 7.81875ZM3.78074 9.215C3.74824 9.23 3.62449 9.27 3.38699 9.1425C3.14949 9.015 2.87449 8.75125 2.68699 8.34625L0.420742 9.4025C0.815742 10.25 1.44949 10.94 2.20824 11.3475C2.96824 11.7537 3.93199 11.9038 4.83699 11.4813L3.78074 9.215ZM2.68699 8.34625C2.49949 7.9425 2.47199 7.56125 2.52699 7.2975C2.58199 7.03375 2.69199 6.965 2.72449 6.95L1.66699 4.68375C0.760742 5.10625 0.256992 5.94 0.0794925 6.78375C-0.0980075 7.62625 0.0257425 8.55625 0.420742 9.4025L2.68449 8.34625H2.68699ZM2.72449 6.95C2.75824 6.93375 2.87949 6.895 3.11824 7.0225C3.35574 7.15 3.63199 7.41375 3.81949 7.81875L6.08449 6.76125C5.68949 5.915 5.05574 5.22375 4.29699 4.8175C3.53699 4.41125 2.57199 4.26125 1.66699 4.68375L2.72449 6.95ZM3.32824 5.2875L2.93324 4.4375L0.666993 5.495L1.06324 6.345L3.32824 5.2875ZM19.6732 8.34125C19.4845 8.74625 19.2107 9.01 18.972 9.1375C18.7345 9.265 18.6107 9.225 18.5782 9.21L17.522 11.4762C18.427 11.8987 19.3907 11.7488 20.1507 11.3425C20.9095 10.9363 21.5432 10.245 21.9382 9.39875L19.6732 8.34125ZM18.5782 9.21C18.5457 9.195 18.437 9.12625 18.3807 8.8625C18.3257 8.5975 18.352 8.2175 18.5395 7.8125L16.2745 6.7575C15.8795 7.60375 15.757 8.53375 15.9345 9.37625C16.112 10.22 16.6157 11.0538 17.522 11.4762L18.5782 9.21ZM18.5407 7.81375C18.7282 7.40875 19.0032 7.145 19.2407 7.0175C19.4782 6.89 19.602 6.93 19.6345 6.945L20.6907 4.67875C19.7857 4.25625 18.822 4.40625 18.062 4.8125C17.3032 5.21875 16.6695 5.91 16.2745 6.7575L18.5407 7.81375ZM19.6345 6.945C19.667 6.96 19.777 7.02875 19.832 7.2925C19.887 7.5575 19.8607 7.93625 19.6732 8.34125L21.9382 9.39875C22.3332 8.55125 22.4557 7.62125 22.2782 6.77875C22.1007 5.935 21.597 5.10125 20.6907 4.67875L19.6345 6.945ZM21.297 6.34L21.692 5.49L19.427 4.43375L19.0307 5.28375L21.297 6.34ZM12.4295 5.625C12.4295 6.935 11.6245 7.5 11.1795 7.5V10C13.497 10 14.9295 7.76625 14.9295 5.625H12.4295ZM11.1795 7.5C10.7345 7.5 9.92949 6.935 9.92949 5.625H7.42949C7.42949 7.76625 8.86199 10 11.1795 10V7.5ZM9.92949 5.625C9.92949 4.315 10.7345 3.75 11.1795 3.75V1.25C8.86199 1.25 7.42949 3.48375 7.42949 5.625H9.92949ZM11.1795 3.75C11.6245 3.75 12.4295 4.315 12.4295 5.625H14.9295C14.9295 3.48375 13.497 1.25 11.1795 1.25V3.75ZM12.4295 2.5V1.25H9.92949V2.5H12.4295Z" fill="#727272"/>
</svg>
