<svg width="28" height="22" viewBox="0 0 28 22" fill="none" xmlns="http://www.w3.org/2000/svg">
<path fill-rule="evenodd" clip-rule="evenodd" d="M13.75 11.25C16.0912 11.25 18.2125 12.025 19.7688 13.1088C21.2475 14.14 22.5 15.6725 22.5 17.3213C22.5 18.2262 22.1138 18.9763 21.505 19.5338C20.9325 20.06 20.185 20.4013 19.415 20.6338C17.8762 21.1 15.85 21.25 13.75 21.25C11.65 21.25 9.62375 21.1 8.085 20.6338C7.315 20.4013 6.5675 20.06 5.99375 19.5338C5.3875 18.9775 5 18.2275 5 17.3225C5 15.6737 6.2525 14.1412 7.73125 13.11C9.2875 12.025 11.4087 11.25 13.75 11.25ZM13.75 13.75C11.95 13.75 10.3212 14.35 9.1625 15.1587C7.92625 16.0212 7.5 16.8988 7.5 17.3213C7.5 17.7013 7.94 17.9388 8.34 18.0888L8.59625 18.1763L8.80875 18.2413C9.98375 18.5963 11.7087 18.75 13.75 18.75C15.635 18.75 17.2487 18.6187 18.41 18.32L18.79 18.2113L19.0275 18.1363C19.4562 17.99 20 17.7437 20 17.3213C20 16.8988 19.5737 16.0212 18.3375 15.1587C17.18 14.3512 15.55 13.75 13.75 13.75ZM22.5 12.5C23.805 12.5 24.99 12.9313 25.8663 13.5413C26.6663 14.1 27.5 15.0287 27.5 16.1612C27.5 17.83 25.8788 18.4275 24.4213 18.6362L24.0462 18.6825L23.685 18.7138C23.6275 18.7175 23.57 18.7208 23.5125 18.7238C23.665 18.2925 23.75 17.8237 23.75 17.3213C23.75 16.94 23.7025 16.5688 23.6162 16.2113C24.0987 16.1737 24.495 16.1112 24.79 16.0225C24.92 15.9825 24.8025 15.86 24.665 15.7537L24.5312 15.6562L24.4362 15.5925C24.0611 15.3363 23.638 15.1586 23.1925 15.07C22.7175 14.12 21.9875 13.2975 21.21 12.6412C21.6336 12.5475 22.0661 12.5001 22.5 12.5ZM5 12.5C5.44625 12.5 5.87875 12.55 6.29 12.6412C5.5125 13.2975 4.7825 14.12 4.3075 15.07C3.8225 15.1687 3.39375 15.3625 3.06375 15.5925L2.90375 15.7025C2.745 15.8175 2.55875 15.9775 2.71 16.0225C3.005 16.1112 3.40125 16.175 3.885 16.2113C3.7975 16.5688 3.75 16.94 3.75 17.3213C3.75 17.8237 3.835 18.2925 3.9875 18.7238L3.6375 18.6987L3.2675 18.6613C1.765 18.4775 0 17.9025 0 16.1612C0 15.03 0.8325 14.1 1.63375 13.5413C2.62483 12.862 3.79848 12.4989 5 12.5ZM21.875 5C22.7038 5 23.4987 5.32924 24.0847 5.91529C24.6708 6.50134 25 7.2962 25 8.125C25 8.9538 24.6708 9.74866 24.0847 10.3347C23.4987 10.9208 22.7038 11.25 21.875 11.25C21.0462 11.25 20.2513 10.9208 19.6653 10.3347C19.0792 9.74866 18.75 8.9538 18.75 8.125C18.75 7.2962 19.0792 6.50134 19.6653 5.91529C20.2513 5.32924 21.0462 5 21.875 5ZM5.625 5C6.4538 5 7.24866 5.32924 7.83471 5.91529C8.42076 6.50134 8.75 7.2962 8.75 8.125C8.75 8.9538 8.42076 9.74866 7.83471 10.3347C7.24866 10.9208 6.4538 11.25 5.625 11.25C4.7962 11.25 4.00134 10.9208 3.41529 10.3347C2.82924 9.74866 2.5 8.9538 2.5 8.125C2.5 7.2962 2.82924 6.50134 3.41529 5.91529C4.00134 5.32924 4.7962 5 5.625 5ZM13.75 0C15.0761 0 16.3479 0.526784 17.2855 1.46447C18.2232 2.40215 18.75 3.67392 18.75 5C18.75 6.32608 18.2232 7.59785 17.2855 8.53553C16.3479 9.47322 15.0761 10 13.75 10C12.4239 10 11.1521 9.47322 10.2145 8.53553C9.27678 7.59785 8.75 6.32608 8.75 5C8.75 3.67392 9.27678 2.40215 10.2145 1.46447C11.1521 0.526784 12.4239 0 13.75 0ZM21.875 7.5C21.7092 7.5 21.5503 7.56585 21.4331 7.68306C21.3158 7.80027 21.25 7.95924 21.25 8.125C21.25 8.29076 21.3158 8.44973 21.4331 8.56694C21.5503 8.68415 21.7092 8.75 21.875 8.75C22.0408 8.75 22.1997 8.68415 22.3169 8.56694C22.4342 8.44973 22.5 8.29076 22.5 8.125C22.5 7.95924 22.4342 7.80027 22.3169 7.68306C22.1997 7.56585 22.0408 7.5 21.875 7.5ZM5.625 7.5C5.45924 7.5 5.30027 7.56585 5.18306 7.68306C5.06585 7.80027 5 7.95924 5 8.125C5 8.29076 5.06585 8.44973 5.18306 8.56694C5.30027 8.68415 5.45924 8.75 5.625 8.75C5.79076 8.75 5.94973 8.68415 6.06694 8.56694C6.18415 8.44973 6.25 8.29076 6.25 8.125C6.25 7.95924 6.18415 7.80027 6.06694 7.68306C5.94973 7.56585 5.79076 7.5 5.625 7.5ZM13.75 2.5C13.087 2.5 12.4511 2.76339 11.9822 3.23223C11.5134 3.70107 11.25 4.33696 11.25 5C11.25 5.66304 11.5134 6.29893 11.9822 6.76777C12.4511 7.23661 13.087 7.5 13.75 7.5C14.413 7.5 15.0489 7.23661 15.5178 6.76777C15.9866 6.29893 16.25 5.66304 16.25 5C16.25 4.33696 15.9866 3.70107 15.5178 3.23223C15.0489 2.76339 14.413 2.5 13.75 2.5Z" fill="#727272"/>
</svg>
