<svg width="26" height="24" viewBox="0 0 26 24" fill="none" xmlns="http://www.w3.org/2000/svg">
<path fill-rule="evenodd" clip-rule="evenodd" d="M20.4047 0.123452C20.1822 0.0164635 19.933 -0.0222306 19.6885 0.0122507C19.444 0.0467319 19.2152 0.152844 19.031 0.317202C18.906 0.428452 18.791 0.549702 18.6785 0.673452C18.4897 0.882202 18.241 1.1822 18.001 1.55845C17.5347 2.2872 17.0135 3.43345 17.2035 4.7797C17.3922 6.12595 18.2085 7.0847 18.8585 7.65595C19.0397 7.8172 19.2185 7.95595 19.381 8.0722C18.986 9.1847 19.1397 10.2735 19.3497 11.026C19.3985 11.201 19.4522 11.3635 19.506 11.5122C18.5222 12.1972 18.0147 13.1922 17.7522 13.9372C17.6576 14.2062 17.5804 14.4809 17.521 14.7597C16.4397 14.916 15.586 15.4772 15.0272 15.9572C14.6172 16.3072 14.2097 16.7197 13.921 17.181C13.2285 18.2897 13.1522 19.676 13.5122 20.851C13.8772 22.041 14.7497 23.1885 16.1485 23.6547C16.4516 23.7572 16.7825 23.7396 17.073 23.6055C17.3635 23.4714 17.5915 23.231 17.7101 22.9338C17.8286 22.6366 17.8287 22.3052 17.7103 22.008C17.5918 21.7107 17.3639 21.4702 17.0735 21.336L16.9385 21.2822C16.5485 21.1522 16.2222 20.8485 16.0185 20.4172C16.5935 20.7297 17.2972 20.9672 18.106 20.9672C19.466 20.9672 20.5285 20.2922 21.1847 19.7297C21.5222 19.4397 21.7872 19.1522 21.966 18.936C22.0735 18.8085 22.1785 18.676 22.271 18.536C22.4073 18.3299 22.4798 18.0882 22.4793 17.8412C22.4789 17.5942 22.4055 17.3527 22.2685 17.1472L22.211 17.0635C22.4485 16.981 22.6885 16.8747 22.9235 16.7385C24.1022 16.0585 24.6847 14.9422 24.9722 14.126C25.0897 13.7897 25.1685 13.4785 25.2185 13.226L25.2772 12.896L25.3072 12.6535L25.316 12.5497C25.3316 12.3035 25.2741 12.0583 25.1507 11.8447C25.0272 11.6312 24.8433 11.459 24.6222 11.3497L24.5635 11.321C24.8035 11.0447 25.0197 10.7247 25.1935 10.3535C25.7685 9.12095 25.6047 7.87345 25.3722 7.0397C25.2327 6.51807 25.0233 6.0177 24.7497 5.5522C24.6205 5.34181 24.4323 5.17398 24.2085 5.06955C23.9847 4.96511 23.7353 4.92866 23.491 4.9647L23.4022 4.98095C23.4422 4.64345 23.4447 4.28345 23.3922 3.9097C23.2035 2.56345 22.386 1.60595 21.7372 1.03345C21.3361 0.67142 20.8879 0.365312 20.4047 0.123452ZM20.4985 5.7697C20.0735 5.39095 19.7497 4.9372 19.6785 4.4322C19.6085 3.9272 19.7935 3.40095 20.0972 2.9197C20.5222 3.29845 20.846 3.75345 20.9172 4.2572C20.9872 4.7622 20.8022 5.28845 20.4985 5.7697ZM22.9685 7.7297C22.4522 7.9672 22.0097 8.3072 21.7935 8.76845C21.5785 9.23095 21.6022 9.78845 21.7522 10.3372C22.2697 10.0997 22.7122 9.7597 22.9272 9.2972C23.1422 8.8347 23.1197 8.2772 22.9685 7.7297ZM22.6072 13.3122C22.0485 13.211 21.491 13.236 21.0497 13.491C20.6085 13.746 20.3072 14.216 20.116 14.751C20.676 14.8535 21.2335 14.8285 21.6747 14.5735C22.116 14.3185 22.416 13.8485 22.6072 13.3122ZM19.5447 17.8435C19.111 17.4747 18.616 17.2185 18.106 17.2185C17.596 17.2185 17.101 17.4747 16.6672 17.8435C17.101 18.211 17.596 18.4685 18.1047 18.4685C18.616 18.4685 19.111 18.211 19.5447 17.8435ZM5.18096 0.123452C5.40348 0.0164635 5.6527 -0.0222306 5.89719 0.0122507C6.14167 0.0467319 6.37046 0.152844 6.55471 0.317202C6.67971 0.428452 6.79471 0.549702 6.90721 0.673452C7.09596 0.882202 7.34471 1.1822 7.58471 1.55845C8.05096 2.2872 8.57221 3.43345 8.38221 4.7797C8.19346 6.12595 7.37721 7.0847 6.72721 7.65595C6.56014 7.80338 6.38576 7.94231 6.20471 8.0722C6.59971 9.1847 6.44596 10.2735 6.23596 11.026C6.18721 11.201 6.13346 11.3635 6.07971 11.5122C7.06221 12.1972 7.57096 13.1922 7.83346 13.9372C7.93971 14.241 8.01346 14.5222 8.06471 14.7597C9.14596 14.916 9.99971 15.4772 10.5585 15.9572C10.9685 16.3072 11.376 16.7197 11.6647 17.181C12.3572 18.2897 12.4335 19.676 12.0735 20.851C11.7085 22.041 10.836 23.1885 9.43721 23.6547C9.13411 23.7572 8.80322 23.7396 8.5127 23.6055C8.22219 23.4714 7.99416 23.231 7.8756 22.9338C7.75704 22.6366 7.75697 22.3052 7.8754 22.008C7.99383 21.7107 8.22175 21.4702 8.51221 21.336L8.64721 21.2822C9.03721 21.1522 9.36346 20.8485 9.56721 20.4172C8.99221 20.7297 8.28846 20.9672 7.47971 20.9672C6.11971 20.9672 5.05846 20.2922 4.40096 19.7297C4.11901 19.4872 3.85769 19.2217 3.61971 18.936C3.51104 18.8081 3.40923 18.6746 3.31471 18.536C3.1784 18.3299 3.10592 18.0882 3.10637 17.8412C3.10681 17.5942 3.18016 17.3527 3.31721 17.1472L3.37471 17.0635C3.1274 16.9781 2.88881 16.8692 2.66221 16.7385C1.48346 16.0585 0.900964 14.9422 0.613464 14.126C0.510577 13.832 0.428294 13.5313 0.367214 13.226L0.308464 12.896L0.278464 12.6535C0.239528 12.3916 0.284763 12.1241 0.407648 11.8895C0.530533 11.655 0.724719 11.4655 0.962214 11.3485L1.02221 11.321C0.768121 11.0294 0.556066 10.7038 0.392214 10.3535C-0.182786 9.12095 -0.0190363 7.87345 0.213464 7.0397C0.357214 6.52595 0.558464 6.0097 0.835964 5.5522C1.09596 5.12345 1.60096 4.8897 2.09471 4.9647L2.18346 4.98095C2.14032 4.62495 2.14368 4.26484 2.19346 3.9097C2.38221 2.56345 3.19846 1.60595 3.84846 1.03345C4.24846 0.679702 4.69846 0.357202 5.18096 0.123452ZM5.08721 5.7697C5.51221 5.39095 5.83596 4.9372 5.90721 4.4322C5.97721 3.9272 5.79221 3.40095 5.48846 2.9197C5.06346 3.29845 4.73971 3.75345 4.66846 4.2572C4.59846 4.7622 4.78346 5.28845 5.08721 5.7697ZM2.61846 7.7297C3.13471 7.9672 3.57721 8.3072 3.79346 8.76845C4.00846 9.23095 3.98471 9.78845 3.83471 10.3372C3.31721 10.0997 2.87471 9.7597 2.65971 9.2972C2.44471 8.8347 2.46721 8.2772 2.61846 7.7297ZM2.97971 13.3122C3.53846 13.211 4.09596 13.236 4.53721 13.491C4.97846 13.746 5.27971 14.216 5.47096 14.751C4.91096 14.8535 4.35346 14.8285 3.91221 14.5735C3.47096 14.3185 3.17096 13.8485 2.97971 13.3122ZM6.04221 17.8435C6.47596 17.4747 6.97096 17.2185 7.48096 17.2185C7.99096 17.2185 8.48596 17.4747 8.91971 17.8435C8.48596 18.211 7.99096 18.4685 7.48221 18.4685C6.97096 18.4685 6.47596 18.211 6.04221 17.8435Z" fill="#727272"/>
</svg>
