<svg width="21" height="19" viewBox="0 0 21 19" fill="none" xmlns="http://www.w3.org/2000/svg">
<path d="M15.1667 0C15.464 0.000329825 15.75 0.114192 15.9663 0.318323C16.1825 0.522453 16.3126 0.801445 16.33 1.09829C16.3475 1.39514 16.2509 1.68744 16.06 1.91547C15.8692 2.1435 15.5984 2.29005 15.3032 2.32517L15.1667 2.33333H2.91667C2.7709 2.33306 2.63031 2.38738 2.52259 2.48559C2.41486 2.5838 2.34782 2.71878 2.33465 2.86396C2.32147 3.00913 2.36313 3.15398 2.45142 3.26997C2.53971 3.38596 2.66823 3.4647 2.81167 3.49067L2.91667 3.5H18.6667C19.2553 3.49981 19.8223 3.72214 20.254 4.12241C20.6856 4.52268 20.95 5.07132 20.9942 5.65833L21 5.83333V16.3333C21.0002 16.922 20.7779 17.489 20.3776 17.9206C19.9773 18.3523 19.4287 18.6167 18.8417 18.6608L18.6667 18.6667H2.33333C1.74466 18.6669 1.17767 18.4445 0.746027 18.0443C0.314382 17.644 0.0499839 17.0953 0.0058335 16.5083L3.46277e-08 16.3333V2.91667C-0.000114002 2.17616 0.281438 1.46334 0.787546 0.92278C1.29365 0.382224 1.98642 0.0544106 2.72533 0.00583347L2.91667 0H15.1667ZM2.33333 5.775V16.3333H18.6667V5.83333H2.91667C2.78367 5.83333 2.65183 5.824 2.5235 5.80767L2.33333 5.775ZM14.5833 9.33333C15.0475 9.33333 15.4926 9.51771 15.8208 9.84589C16.149 10.1741 16.3333 10.6192 16.3333 11.0833C16.3333 11.5475 16.149 11.9926 15.8208 12.3208C15.4926 12.649 15.0475 12.8333 14.5833 12.8333C14.1192 12.8333 13.6741 12.649 13.3459 12.3208C13.0177 11.9926 12.8333 11.5475 12.8333 11.0833C12.8333 10.6192 13.0177 10.1741 13.3459 9.84589C13.6741 9.51771 14.1192 9.33333 14.5833 9.33333Z" fill="#2400FF"/>
</svg>
