<svg width="20" height="25" viewBox="0 0 20 25" fill="none" xmlns="http://www.w3.org/2000/svg">
<path fill-rule="evenodd" clip-rule="evenodd" d="M4.88151 0C3.88695 0 2.93312 0.395088 2.22986 1.09835C1.5266 1.80161 1.13151 2.75544 1.13151 3.75C1.13151 4.74456 1.5266 5.69839 2.22986 6.40165C2.93312 7.10491 3.88695 7.5 4.88151 7.5C5.87607 7.5 6.8299 7.10491 7.53316 6.40165C8.23642 5.69839 8.63151 4.74456 8.63151 3.75C8.63151 2.75544 8.23642 1.80161 7.53316 1.09835C6.8299 0.395088 5.87607 0 4.88151 0ZM3.63151 3.75C3.63151 3.41848 3.76321 3.10054 3.99763 2.86612C4.23205 2.6317 4.54999 2.5 4.88151 2.5C5.21303 2.5 5.53097 2.6317 5.76539 2.86612C5.99981 3.10054 6.13151 3.41848 6.13151 3.75C6.13151 4.08152 5.99981 4.39946 5.76539 4.63388C5.53097 4.8683 5.21303 5 4.88151 5C4.54999 5 4.23205 4.8683 3.99763 4.63388C3.76321 4.39946 3.63151 4.08152 3.63151 3.75ZM14.8815 0C13.8869 0 12.9331 0.395088 12.2299 1.09835C11.5266 1.80161 11.1315 2.75544 11.1315 3.75C11.1315 4.74456 11.5266 5.69839 12.2299 6.40165C12.9331 7.10491 13.8869 7.5 14.8815 7.5C15.8761 7.5 16.8299 7.10491 17.5332 6.40165C18.2364 5.69839 18.6315 4.74456 18.6315 3.75C18.6315 2.75544 18.2364 1.80161 17.5332 1.09835C16.8299 0.395088 15.8761 0 14.8815 0ZM13.6315 3.75C13.6315 3.41848 13.7632 3.10054 13.9976 2.86612C14.232 2.6317 14.55 2.5 14.8815 2.5C15.213 2.5 15.531 2.6317 15.7654 2.86612C15.9998 3.10054 16.1315 3.41848 16.1315 3.75C16.1315 4.08152 15.9998 4.39946 15.7654 4.63388C15.531 4.8683 15.213 5 14.8815 5C14.55 5 14.232 4.8683 13.9976 4.63388C13.7632 4.39946 13.6315 4.08152 13.6315 3.75ZM0.0102591 11.4762C-0.0211807 11.1303 0.0198315 10.7815 0.13068 10.4523C0.241528 10.1231 0.419778 9.82054 0.654061 9.56403C0.888345 9.30751 1.17352 9.10265 1.49139 8.96249C1.80926 8.82233 2.15286 8.74996 2.50026 8.75H7.26276C7.61016 8.74996 7.95375 8.82233 8.27163 8.96249C8.5895 9.10265 8.87467 9.30751 9.10896 9.56403C9.34324 9.82054 9.52149 10.1231 9.63234 10.4523C9.74319 10.7815 9.7842 11.1303 9.75276 11.4762L8.62651 23.8638C8.59813 24.1743 8.45468 24.4631 8.22433 24.6733C7.99398 24.8835 7.69337 25 7.38151 25H2.38151C2.06945 25 1.76867 24.8833 1.53829 24.6728C1.30791 24.4623 1.16459 24.1733 1.13651 23.8625L0.0102591 11.4762ZM2.50026 11.25L3.52276 22.5H6.24026L7.26276 11.25H2.50026ZM13.4065 8.75C12.8286 8.75006 12.2685 8.95036 11.8216 9.31682C11.3747 9.68328 11.0685 10.1933 10.9553 10.76L9.90526 16.005C9.86901 16.1864 9.87346 16.3735 9.91829 16.553C9.96313 16.7325 10.0472 16.8997 10.1645 17.0427C10.2818 17.1857 10.4294 17.3009 10.5966 17.38C10.7639 17.4591 10.9465 17.5001 11.1315 17.5V23.75C11.1315 24.0815 11.2632 24.3995 11.4976 24.6339C11.732 24.8683 12.05 25 12.3815 25H17.3815C17.713 25 18.031 24.8683 18.2654 24.6339C18.4998 24.3995 18.6315 24.0815 18.6315 23.75V17.5C18.8164 17.4999 18.9989 17.4588 19.166 17.3796C19.333 17.3005 19.4805 17.1852 19.5976 17.0423C19.7148 16.8993 19.7988 16.7321 19.8435 16.5527C19.8883 16.3733 19.8927 16.1863 19.8565 16.005L18.809 10.76C18.6957 10.1931 18.3894 9.68291 17.9422 9.31642C17.495 8.94994 16.9347 8.74977 16.3565 8.75H13.4065ZM13.6315 16.25C13.6316 15.9651 13.5344 15.6887 13.3559 15.4666C13.1775 15.2445 12.9285 15.09 12.6503 15.0287L13.4065 11.25H16.3565L17.1128 15.0287C16.8345 15.09 16.5855 15.2445 16.4071 15.4666C16.2286 15.6887 16.1314 15.9651 16.1315 16.25V22.5H13.6315V16.25Z" fill="#727272"/>
</svg>
