<svg width="25" height="20" viewBox="0 0 25 20" fill="none" xmlns="http://www.w3.org/2000/svg">
<path fill-rule="evenodd" clip-rule="evenodd" d="M3.75 0C2.75544 0 1.80161 0.395088 1.09835 1.09835C0.395088 1.80161 0 2.75544 0 3.75V16.25C0 17.2446 0.395088 18.1984 1.09835 18.9017C1.80161 19.6049 2.75544 20 3.75 20H21.25C22.2446 20 23.1984 19.6049 23.9017 18.9017C24.6049 18.1984 25 17.2446 25 16.25V3.75C25 2.75544 24.6049 1.80161 23.9017 1.09835C23.1984 0.395088 22.2446 0 21.25 0H3.75ZM22.5 5.2125V3.75C22.5 3.41848 22.3683 3.10054 22.1339 2.86612C21.8995 2.6317 21.5815 2.5 21.25 2.5H3.75C3.41848 2.5 3.10054 2.6317 2.86612 2.86612C2.6317 3.10054 2.5 3.41848 2.5 3.75V5.2125C2.89125 5.075 3.3125 5 3.75 5H21.25C21.6875 5 22.1087 5.075 22.5 5.2125ZM2.5 8.75V10H8.75C8.785 10 8.82 10.0012 8.855 10.005C9.13112 9.98085 9.40743 10.0492 9.64049 10.1992C9.87356 10.3492 10.0501 10.5724 10.1425 10.8337C10.3152 11.3209 10.6346 11.7426 11.0568 12.0409C11.4789 12.3391 11.9831 12.4993 12.5 12.4993C13.0169 12.4993 13.5211 12.3391 13.9432 12.0409C14.3654 11.7426 14.6848 11.3209 14.8575 10.8337C14.9499 10.5724 15.1264 10.3492 15.3595 10.1992C15.5926 10.0492 15.8689 9.98085 16.145 10.005C16.1788 10 16.215 10 16.25 10H22.5V8.75C22.5 8.41848 22.3683 8.10054 22.1339 7.86612C21.8995 7.6317 21.5815 7.5 21.25 7.5H3.75C3.41848 7.5 3.10054 7.6317 2.86612 7.86612C2.6317 8.10054 2.5 8.41848 2.5 8.75ZM16.8312 12.5C16.3925 13.2604 15.7612 13.8919 15.0008 14.3307C14.2405 14.7696 13.3779 15.0005 12.5 15C11.6221 15.0005 10.7595 14.7696 9.99917 14.3307C9.23882 13.8919 8.60749 13.2604 8.16875 12.5H2.5V16.25C2.5 16.5815 2.6317 16.8995 2.86612 17.1339C3.10054 17.3683 3.41848 17.5 3.75 17.5H21.25C21.5815 17.5 21.8995 17.3683 22.1339 17.1339C22.3683 16.8995 22.5 16.5815 22.5 16.25V12.5H16.8312Z" fill="#727272"/>
</svg>
