<svg width="28" height="28" viewBox="0 0 28 28" fill="none" xmlns="http://www.w3.org/2000/svg">
<g clip-path="url(#clip0_16_158)">
<path fill-rule="evenodd" clip-rule="evenodd" d="M4.66666 4.66659C4.66666 4.04775 4.9125 3.45425 5.35008 3.01667C5.78767 2.57908 6.38116 2.33325 7 2.33325H21C21.6188 2.33325 22.2123 2.57908 22.6499 3.01667C23.0875 3.45425 23.3333 4.04775 23.3333 4.66659V23.3333C23.3333 23.9521 23.0875 24.5456 22.6499 24.9832C22.2123 25.4208 21.6188 25.6666 21 25.6666H7C6.38116 25.6666 5.78767 25.4208 5.35008 24.9832C4.9125 24.5456 4.66666 23.9521 4.66666 23.3333V4.66659ZM21 4.66659H7V23.3333H21V4.66659ZM9.33333 10.4999C9.33333 10.1905 9.45625 9.89375 9.67504 9.67496C9.89383 9.45617 10.1906 9.33325 10.5 9.33325H17.5C17.8094 9.33325 18.1062 9.45617 18.325 9.67496C18.5437 9.89375 18.6667 10.1905 18.6667 10.4999C18.6667 10.8093 18.5437 11.1061 18.325 11.3249C18.1062 11.5437 17.8094 11.6666 17.5 11.6666H10.5C10.1906 11.6666 9.89383 11.5437 9.67504 11.3249C9.45625 11.1061 9.33333 10.8093 9.33333 10.4999ZM10.5 15.1666C10.1906 15.1666 9.89383 15.2895 9.67504 15.5083C9.45625 15.7271 9.33333 16.0238 9.33333 16.3333C9.33333 16.6427 9.45625 16.9394 9.67504 17.1582C9.89383 17.377 10.1906 17.4999 10.5 17.4999H14C14.3094 17.4999 14.6062 17.377 14.825 17.1582C15.0437 16.9394 15.1667 16.6427 15.1667 16.3333C15.1667 16.0238 15.0437 15.7271 14.825 15.5083C14.6062 15.2895 14.3094 15.1666 14 15.1666H10.5Z" fill="#2400FF"/>
</g>
<defs>
<clipPath id="clip0_16_158">
<rect width="28" height="28" fill="white"/>
</clipPath>
</defs>
</svg>
