<svg width="17" height="17" viewBox="0 0 17 17" fill="none" xmlns="http://www.w3.org/2000/svg">
<path fill-rule="evenodd" clip-rule="evenodd" d="M7.91935 1.66785C8.74273 1.66786 9.54324 1.93874 10.1974 2.43873C10.8516 2.93871 11.3232 3.64002 11.5393 4.43452C11.626 4.75368 11.8902 4.99285 12.2152 5.04535C12.8932 5.1577 13.52 5.47685 14.0097 5.95911C14.4994 6.44137 14.8281 7.06319 14.9508 7.73944C15.0735 8.4157 14.9842 9.11335 14.6951 9.7369C14.4061 10.3605 13.9314 10.8795 13.336 11.2228C13.2381 11.276 13.1519 11.3482 13.0823 11.4352C13.0128 11.5222 12.9615 11.6223 12.9313 11.7295C12.9011 11.8368 12.8927 11.949 12.9067 12.0595C12.9206 12.17 12.9565 12.2766 13.0123 12.373C13.0682 12.4693 13.1427 12.5536 13.2317 12.6206C13.3206 12.6877 13.4221 12.7363 13.5301 12.7634C13.6381 12.7906 13.7505 12.7959 13.8606 12.7789C13.9707 12.7619 14.0762 12.723 14.171 12.6645C15.0252 12.1709 15.7144 11.4358 16.1518 10.5515C16.5892 9.6672 16.7554 8.6733 16.6294 7.69482C16.5033 6.71635 16.0907 5.797 15.4435 5.05243C14.7962 4.30787 13.9433 3.77134 12.9918 3.51035C12.5471 2.32838 11.7036 1.33886 10.6068 0.712775C9.51009 0.0866854 8.22911 -0.13665 6.98521 0.0813561C5.74131 0.299362 4.61263 0.945016 3.79417 1.90676C2.97572 2.86851 2.51892 4.08593 2.50268 5.34868C1.7502 5.67646 1.11128 6.21919 0.66611 6.90875C0.220938 7.59831 -0.0106607 8.404 0.000376924 9.2247C0.0114146 10.0454 0.264596 10.8446 0.728152 11.5219C1.19171 12.1992 1.84499 12.7246 2.60602 13.032C2.81055 13.1131 3.03887 13.1101 3.24115 13.0235C3.44344 12.9369 3.60328 12.7739 3.68579 12.5699C3.76831 12.3659 3.7668 12.1376 3.6816 11.9347C3.5964 11.7319 3.43443 11.5709 3.23102 11.487C2.74205 11.2891 2.3282 10.9415 2.04865 10.4942C1.76911 10.0468 1.63819 9.52251 1.67462 8.99625C1.71105 8.46999 1.91296 7.96872 2.25147 7.56414C2.58999 7.15956 3.04777 6.87238 3.55935 6.74368C3.75693 6.69431 3.9299 6.57497 4.04621 6.40779C4.16251 6.24061 4.21426 6.03693 4.19185 5.83452C3.95268 3.65118 5.71185 1.66785 7.91935 1.66785ZM8.33602 7.50118C8.55703 7.50118 8.76899 7.58898 8.92527 7.74526C9.08155 7.90154 9.16935 8.1135 9.16935 8.33452V13.8212L10.2468 12.7445C10.4033 12.5883 10.6155 12.5006 10.8366 12.5007C11.0577 12.5009 11.2698 12.5889 11.426 12.7453C11.5823 12.9018 11.67 13.114 11.6698 13.3351C11.6697 13.5562 11.5817 13.7683 11.4252 13.9245L9.07185 16.2737C8.86102 16.4837 8.65518 16.6678 8.33602 16.6678C8.01602 16.6678 7.81102 16.4845 7.60018 16.2737L5.24685 13.9237C5.09048 13.7674 5.00259 13.5555 5.00251 13.3344C5.00244 13.1133 5.09018 12.9013 5.24643 12.7449C5.40269 12.5886 5.61466 12.5007 5.83572 12.5006C6.05678 12.5005 6.26881 12.5883 6.42518 12.7445L7.50268 13.8212V8.33452C7.50268 8.1135 7.59048 7.90154 7.74676 7.74526C7.90304 7.58898 8.115 7.50118 8.33602 7.50118Z" fill="#E9E9E9"/>
</svg>
