<svg width="24" height="24" viewBox="0 0 24 24" fill="none" xmlns="http://www.w3.org/2000/svg">
<path d="M17.5 5.82556e-09C18.4565 -5.32772e-05 19.3769 0.365406 20.0728 1.0216C20.7688 1.6778 21.1876 2.57513 21.2438 3.53L21.25 3.75V16.25H22.1875C22.9963 16.25 23.6625 16.865 23.7425 17.6525L23.75 17.8125V20C23.7501 20.9565 23.3846 21.8769 22.7284 22.5728C22.0722 23.2688 21.1749 23.6876 20.22 23.7438L20 23.75H7.5C6.54349 23.7501 5.62311 23.3846 4.92717 22.7284C4.23124 22.0722 3.81237 21.1749 3.75625 20.22L3.75 20V7.5H1.5625C1.17568 7.50018 0.80254 7.35686 0.515293 7.09778C0.228046 6.83871 0.0471106 6.48229 0.00750006 6.0975L5.82556e-09 5.9375V3.75C-5.32772e-05 2.79349 0.365406 1.87311 1.0216 1.17717C1.6778 0.481241 2.57513 0.0623656 3.53 0.00625015L3.75 5.82556e-09H17.5ZM17.5 2.5H6.25V20C6.25 20.3315 6.3817 20.6495 6.61612 20.8839C6.85054 21.1183 7.16848 21.25 7.5 21.25C7.83152 21.25 8.14946 21.1183 8.38388 20.8839C8.6183 20.6495 8.75 20.3315 8.75 20V17.8125C8.75 16.95 9.45 16.25 10.3125 16.25H18.75V3.75C18.75 3.41848 18.6183 3.10054 18.3839 2.86612C18.1495 2.6317 17.8315 2.5 17.5 2.5ZM21.25 18.75H11.25V20C11.25 20.4375 11.175 20.8587 11.0375 21.25H20C20.3315 21.25 20.6495 21.1183 20.8839 20.8839C21.1183 20.6495 21.25 20.3315 21.25 20V18.75ZM12.5 11.25C12.8315 11.25 13.1495 11.3817 13.3839 11.6161C13.6183 11.8505 13.75 12.1685 13.75 12.5C13.75 12.8315 13.6183 13.1495 13.3839 13.3839C13.1495 13.6183 12.8315 13.75 12.5 13.75H10C9.66848 13.75 9.35054 13.6183 9.11612 13.3839C8.8817 13.1495 8.75 12.8315 8.75 12.5C8.75 12.1685 8.8817 11.8505 9.11612 11.6161C9.35054 11.3817 9.66848 11.25 10 11.25H12.5ZM15 6.25C15.3315 6.25 15.6495 6.3817 15.8839 6.61612C16.1183 6.85054 16.25 7.16848 16.25 7.5C16.25 7.83152 16.1183 8.14946 15.8839 8.38388C15.6495 8.6183 15.3315 8.75 15 8.75H10C9.66848 8.75 9.35054 8.6183 9.11612 8.38388C8.8817 8.14946 8.75 7.83152 8.75 7.5C8.75 7.16848 8.8817 6.85054 9.11612 6.61612C9.35054 6.3817 9.66848 6.25 10 6.25H15ZM3.75 2.5C3.44383 2.50004 3.14833 2.61244 2.91954 2.81589C2.69074 3.01934 2.54457 3.29969 2.50875 3.60375L2.5 3.75V5H3.75V2.5Z" fill="#727272"/>
</svg>
