<svg width="1440" height="841" viewBox="0 0 1440 841" fill="none" xmlns="http://www.w3.org/2000/svg">
<g opacity="0.6">
<g opacity="0.09">
<line x1="-60" y1="679.644" x2="1451.58" y2="679.644" stroke="#222020" stroke-width="1.2607"/>
<line x1="-60" y1="356.906" x2="1451.58" y2="356.906" stroke="#222020" stroke-width="1.2607"/>
<line x1="-60" y1="34.1653" x2="1451.58" y2="34.1653" stroke="#222020" stroke-width="1.2607"/>
<line x1="-60" y1="518.274" x2="1451.58" y2="518.274" stroke="#222020" stroke-width="1.2607"/>
<line x1="-60" y1="841.012" x2="1451.58" y2="841.012" stroke="#222020" stroke-width="1.2607"/>
<line x1="-60" y1="195.536" x2="1451.58" y2="195.536" stroke="#222020" stroke-width="1.2607"/>
<line x1="-60" y1="598.959" x2="1451.58" y2="598.959" stroke="#222020" stroke-width="1.2607"/>
<line x1="-60" y1="276.221" x2="1451.58" y2="276.221" stroke="#222020" stroke-width="1.2607"/>
<line x1="-60" y1="437.589" x2="1451.58" y2="437.589" stroke="#222020" stroke-width="1.2607"/>
<line x1="-60" y1="760.329" x2="1451.58" y2="760.329" stroke="#222020" stroke-width="1.2607"/>
<line x1="-60" y1="114.851" x2="1451.58" y2="114.851" stroke="#222020" stroke-width="1.2607"/>
<line x1="632.756" y1="5.80127" x2="632.756" y2="1173.21" stroke="#222020" stroke-width="1.2607"/>
<line x1="310.016" y1="5.80103" x2="310.016" y2="1173.21" stroke="#222020" stroke-width="1.2607"/>
<line x1="955.492" y1="5.80127" x2="955.492" y2="1173.21" stroke="#222020" stroke-width="1.2607"/>
<line x1="1278.23" y1="5.80127" x2="1278.23" y2="1173.21" stroke="#222020" stroke-width="1.2607"/>
<line x1="148.645" y1="5.80127" x2="148.645" y2="1173.21" stroke="#222020" stroke-width="1.2607"/>
<line x1="794.122" y1="5.80127" x2="794.122" y2="1173.21" stroke="#222020" stroke-width="1.2607"/>
<line x1="471.386" y1="5.80127" x2="471.386" y2="1173.21" stroke="#222020" stroke-width="1.2607"/>
<line x1="1116.86" y1="5.80103" x2="1116.86" y2="1173.21" stroke="#222020" stroke-width="1.2607"/>
<line x1="1439.6" y1="5.80127" x2="1439.6" y2="1173.21" stroke="#222020" stroke-width="1.2607"/>
<line x1="67.9626" y1="5.80127" x2="67.9625" y2="1173.21" stroke="#222020" stroke-width="1.2607"/>
<line x1="713.439" y1="5.80103" x2="713.439" y2="1173.21" stroke="#222020" stroke-width="1.2607"/>
<line x1="390.699" y1="5.80127" x2="390.698" y2="1173.21" stroke="#222020" stroke-width="1.2607"/>
<line x1="1036.18" y1="5.80127" x2="1036.18" y2="1173.21" stroke="#222020" stroke-width="1.2607"/>
<line x1="1358.92" y1="5.80127" x2="1358.92" y2="1173.21" stroke="#222020" stroke-width="1.2607"/>
<line x1="229.333" y1="5.80127" x2="229.333" y2="1173.21" stroke="#222020" stroke-width="1.2607"/>
<line x1="874.809" y1="5.80127" x2="874.809" y2="1173.21" stroke="#222020" stroke-width="1.2607"/>
<line x1="552.069" y1="5.80127" x2="552.069" y2="1173.21" stroke="#222020" stroke-width="1.2607"/>
<line x1="1197.55" y1="5.80127" x2="1197.55" y2="1173.21" stroke="#222020" stroke-width="1.2607"/>
</g>
<g opacity="0.5">
<rect x="794.181" y="840.955" width="80.2262" height="80.2262" fill="#D9AB52" fill-opacity="0.5"/>
<rect x="390.758" y="840.955" width="80.2262" height="80.2262" fill="#D9AB52" fill-opacity="0.2"/>
<rect x="1117.38" y="277.08" width="80.2262" height="79.0801" fill="#D9AB52" fill-opacity="0.25"/>
<rect x="470.985" y="518.854" width="80.2262" height="79.0801" fill="#D9AB52" fill-opacity="0.15"/>
<rect x="1036.01" y="357.306" width="80.2262" height="79.0801" fill="#D9AB52" fill-opacity="0.25"/>
<rect x="390.612" y="277.08" width="80.2262" height="79.0801" fill="#D9AB52" fill-opacity="0.15"/>
<rect x="1036.01" y="277.08" width="80.2262" height="79.0801" fill="#D9AB52" fill-opacity="0.25"/>
<rect x="390.612" y="518.854" width="80.2262" height="79.0801" fill="#D9AB52" fill-opacity="0.15"/>
<rect x="310.531" y="840.955" width="80.2262" height="80.2262" fill="#D9AB52" fill-opacity="0.2"/>
<rect x="148.933" y="760.729" width="80.2262" height="80.2262" fill="#D9AB52" fill-opacity="0.2"/>
<rect x="955.779" y="115.481" width="80.2262" height="80.2262" fill="#D9AB52" fill-opacity="0.15"/>
<rect x="874.676" y="34.7939" width="80.2262" height="79.5062" fill="#D9AB52" fill-opacity="0.15"/>
<rect x="874.676" y="115.052" width="80.2262" height="80.0285" fill="#D9AB52" fill-opacity="0.15"/>
<rect x="148.933" y="194.561" width="81.3723" height="82.5184" fill="#D9AB52" fill-opacity="0.2"/>
<rect x="67.5606" y="114.335" width="81.3723" height="80.2262" fill="#D9AB52" fill-opacity="0.2"/>
<rect x="-12.6656" y="115.481" width="81.3723" height="80.2262" fill="#D9AB52" fill-opacity="0.2"/>
<rect x="67.5606" y="194.561" width="81.3723" height="82.5184" fill="#D9AB52" fill-opacity="0.2"/>
<rect x="390.758" y="34.1086" width="81.3723" height="80.2262" fill="#D9AB52" fill-opacity="0.25"/>
<rect x="148.933" y="356.16" width="80.2262" height="81.3723" fill="#D9AB52" fill-opacity="0.2"/>
<rect x="1117.38" y="760.729" width="80.2262" height="80.2262" fill="#D9AB52" fill-opacity="0.15"/>
<rect x="1197.6" y="840.955" width="80.2262" height="80.2262" fill="#D9AB52" fill-opacity="0.15"/>
</g>
</g>
</svg>
