<svg width="23" height="25" viewBox="0 0 23 25" fill="none" xmlns="http://www.w3.org/2000/svg">
<path d="M10.3725 0.158524C10.8658 -0.0260356 11.4047 -0.0500963 11.9125 0.0897743L12.1275 0.158524L20.8775 3.43977C21.3212 3.60614 21.7084 3.89516 21.9941 4.27315C22.2798 4.65115 22.4522 5.10256 22.4912 5.57477L22.5 5.78102V12.4848C22.5 14.5103 21.953 16.4982 20.917 18.2388C19.881 19.9793 18.3942 21.4078 16.6138 22.3735L16.2812 22.5473L12.0887 24.6435C11.8579 24.7588 11.6058 24.8252 11.3481 24.8385C11.0904 24.8518 10.8328 24.8118 10.5912 24.721L10.4113 24.6435L6.21875 22.5473C4.40701 21.6414 2.87347 20.2631 1.78001 18.558C0.686541 16.8529 0.0737257 14.8842 0.00625014 12.8598L0 12.4848V5.78102C7.26881e-06 5.30744 0.134533 4.84359 0.387917 4.44349C0.641301 4.04339 1.00312 3.72348 1.43125 3.52102L1.6225 3.43977L10.3725 0.158524ZM11.25 2.49977L2.5 5.78102V12.4848C2.50003 14.0535 2.92182 15.5934 3.72119 16.9432C4.52057 18.2931 5.66814 19.4032 7.04375 20.1573L7.3375 20.311L11.25 22.2673L15.1625 20.311C16.5659 19.6095 17.7549 18.5434 18.6048 17.2246C19.4548 15.9058 19.9345 14.3827 19.9938 12.8148L20 12.4848V5.78102L11.25 2.49977ZM15.5412 8.20102C15.7662 7.97684 16.068 7.84668 16.3855 7.83699C16.7029 7.8273 17.0121 7.93879 17.2503 8.14884C17.4886 8.35888 17.6379 8.65171 17.668 8.96787C17.6981 9.28402 17.6068 9.59978 17.4125 9.85102L17.3088 9.96852L10.7662 16.5123C10.5279 16.7506 10.2104 16.893 9.87396 16.9126C9.53753 16.9322 9.20561 16.8275 8.94125 16.6185L8.82125 16.5123L5.81625 13.5073C5.58968 13.2828 5.45746 12.9803 5.44665 12.6616C5.43583 12.3429 5.54725 12.0321 5.75808 11.7928C5.96892 11.5535 6.26323 11.4039 6.58078 11.3745C6.89833 11.3451 7.2151 11.4382 7.46625 11.6348L7.58375 11.7385L9.79375 13.9485L15.5412 8.20102Z" fill="#727272"/>
</svg>
