<svg width="28" height="28" viewBox="0 0 28 28" fill="none" xmlns="http://www.w3.org/2000/svg">
<g clip-path="url(#clip0_16_163)">
<path d="M10.6248 6.35592C11.3225 4.31425 14.1435 4.25242 14.9707 6.17042L15.0407 6.35709L15.9822 9.11042C16.1979 9.74186 16.5466 10.3197 17.0047 10.8049C17.4627 11.2901 18.0195 11.6715 18.6375 11.9233L18.8907 12.0178L21.644 12.9581C23.6857 13.6558 23.7475 16.4768 21.8307 17.3039L21.644 17.3739L18.8907 18.3154C18.259 18.531 17.681 18.8797 17.1955 19.3377C16.7101 19.7958 16.3285 20.3527 16.0767 20.9708L15.9822 21.2228L15.0418 23.9773C14.3442 26.0189 11.5232 26.0808 10.6972 24.1639L10.6248 23.9773L9.6845 21.2239C9.46888 20.5923 9.12027 20.0142 8.6622 19.5288C8.20413 19.0433 7.64726 18.6618 7.02917 18.4099L6.77717 18.3154L4.02383 17.3751C1.981 16.6774 1.91917 13.8564 3.83717 13.0304L4.02383 12.9581L6.77717 12.0178C7.40861 11.802 7.98643 11.4533 8.47166 10.9952C8.95689 10.5372 9.33825 9.98039 9.59 9.36242L9.6845 9.11042L10.6248 6.35592ZM12.8333 7.10958L11.893 9.86292C11.5645 10.8258 11.03 11.7054 10.3268 12.4407C9.6236 13.1759 8.7686 13.749 7.82133 14.1201L7.52967 14.2263L4.77633 15.1666L7.52967 16.1069C8.49252 16.4355 9.37219 16.9699 10.1074 17.6731C10.8426 18.3763 11.4157 19.2313 11.7868 20.1786L11.893 20.4703L12.8333 23.2236L13.7737 20.4703C14.1022 19.5074 14.6367 18.6277 15.3399 17.8925C16.0431 17.1573 16.8981 16.5842 17.8453 16.2131L18.137 16.1081L20.8903 15.1666L18.137 14.2263C17.1741 13.8977 16.2945 13.3632 15.5593 12.66C14.824 11.9569 14.2509 11.1019 13.8798 10.1546L13.7748 9.86292L12.8333 7.10958ZM22.1667 2.33325C22.3849 2.33325 22.5988 2.39448 22.784 2.50997C22.9692 2.62546 23.1183 2.79059 23.2143 2.98659L23.2703 3.12309L23.6787 4.32009L24.8768 4.72842C25.0956 4.80273 25.2873 4.9403 25.4278 5.1237C25.5682 5.3071 25.6511 5.52807 25.6658 5.75861C25.6806 5.98915 25.6265 6.21887 25.5106 6.41867C25.3946 6.61847 25.222 6.77935 25.0145 6.88092L24.8768 6.93692L23.6798 7.34525L23.2715 8.54342C23.1971 8.76209 23.0594 8.95373 22.8759 9.09408C22.6924 9.23442 22.4714 9.31714 22.2409 9.33176C22.0104 9.34638 21.7807 9.29224 21.581 9.17619C21.3813 9.06015 21.2205 8.88743 21.119 8.67992L21.063 8.54342L20.6547 7.34642L19.4565 6.93809C19.2378 6.86377 19.046 6.7262 18.9056 6.5428C18.7651 6.3594 18.6823 6.13843 18.6675 5.90789C18.6528 5.67736 18.7068 5.44763 18.8227 5.24783C18.9387 5.04803 19.1114 4.88716 19.3188 4.78559L19.4565 4.72959L20.6535 4.32125L21.0618 3.12309C21.1405 2.89258 21.2893 2.69248 21.4875 2.55083C21.6856 2.40919 21.9231 2.33311 22.1667 2.33325Z" fill="#2400FF"/>
</g>
<defs>
<clipPath id="clip0_16_163">
<rect width="28" height="28" fill="white"/>
</clipPath>
</defs>
</svg>
