<svg width="20" height="25" viewBox="0 0 20 25" fill="none" xmlns="http://www.w3.org/2000/svg">
<path d="M17.5 0C18.163 0 18.7989 0.263392 19.2678 0.732233C19.7366 1.20107 20 1.83696 20 2.5V18.7375C20 18.9475 19.9525 19.14 19.8587 19.3275L19.1775 20.69C19.0906 20.8637 19.0454 21.0552 19.0454 21.2494C19.0454 21.4436 19.0906 21.6351 19.1775 21.8088L19.8563 23.1688C19.9563 23.3592 20.0055 23.5723 19.9991 23.7874C19.9926 24.0024 19.9308 24.2122 19.8195 24.3963C19.7083 24.5805 19.5514 24.7328 19.364 24.8386C19.1766 24.9443 18.9652 24.9999 18.75 25H3.75C2.75544 25 1.80161 24.6049 1.09835 23.9017C0.395088 23.1984 0 22.2446 0 21.25V3.75C0 2.75544 0.395088 1.80161 1.09835 1.09835C1.80161 0.395088 2.75544 0 3.75 0H17.5ZM16.76 20H3.75C3.4314 20.0004 3.12496 20.1223 2.89329 20.3411C2.66162 20.5598 2.52221 20.8587 2.50354 21.1767C2.48486 21.4948 2.58834 21.808 2.79283 22.0523C2.99732 22.2966 3.28738 22.4536 3.60375 22.4912L3.75 22.5H16.76C16.5066 21.7833 16.477 21.0065 16.675 20.2725L16.76 20ZM17.5 2.5H3.75C3.44383 2.50004 3.14833 2.61244 2.91954 2.81589C2.69074 3.01934 2.54457 3.29969 2.50875 3.60375L2.5 3.75V17.7125C2.8125 17.6025 3.145 17.5325 3.48875 17.5088L3.75 17.5H17.5V2.5ZM12.5 6.25C12.8186 6.25035 13.125 6.37235 13.3567 6.59106C13.5884 6.80977 13.7278 7.10869 13.7465 7.42674C13.7651 7.7448 13.6617 8.05797 13.4572 8.30229C13.2527 8.54661 12.9626 8.70362 12.6462 8.74125L12.5 8.75H7.5C7.1814 8.74965 6.87496 8.62765 6.64329 8.40894C6.41162 8.19023 6.27221 7.89131 6.25353 7.57326C6.23486 7.2552 6.33834 6.94203 6.54283 6.69771C6.74732 6.45339 7.03738 6.29638 7.35375 6.25875L7.5 6.25H12.5Z" fill="#727272"/>
</svg>
