<svg width="25" height="23" viewBox="0 0 25 23" fill="none" xmlns="http://www.w3.org/2000/svg">
<path fill-rule="evenodd" clip-rule="evenodd" d="M12.5 0C12.8315 0 13.1495 0.131696 13.3839 0.366116C13.6183 0.600537 13.75 0.918479 13.75 1.25V2.5H14.705C15.0929 2.50003 15.4755 2.59032 15.8225 2.76375L17.795 3.75H22.5C22.8315 3.75 23.1495 3.8817 23.3839 4.11612C23.6183 4.35054 23.75 4.66848 23.75 5C23.75 5.33152 23.6183 5.64946 23.3839 5.88388C23.1495 6.1183 22.8315 6.25 22.5 6.25H22.0225L24.8675 11.9413C24.955 12.115 25 12.3062 25 12.5C25 13.8261 24.4732 15.0979 23.5355 16.0355C22.5979 16.9732 21.3261 17.5 20 17.5C18.6739 17.5 17.4021 16.9732 16.4645 16.0355C15.5268 15.0979 15 13.8261 15 12.5C15 12.3062 15.045 12.115 15.1325 11.9413L17.9775 6.25H17.795C17.4071 6.24997 17.0245 6.15968 16.6775 5.98625L14.705 5H13.75V20H17.5C17.8315 20 18.1495 20.1317 18.3839 20.3661C18.6183 20.6005 18.75 20.9185 18.75 21.25C18.75 21.5815 18.6183 21.8995 18.3839 22.1339C18.1495 22.3683 17.8315 22.5 17.5 22.5H7.5C7.16848 22.5 6.85054 22.3683 6.61612 22.1339C6.3817 21.8995 6.25 21.5815 6.25 21.25C6.25 20.9185 6.3817 20.6005 6.61612 20.3661C6.85054 20.1317 7.16848 20 7.5 20H11.25V5H10.295L8.3225 5.98625C7.97551 6.15968 7.59292 6.24997 7.205 6.25H7.0225L9.8675 11.9413C9.95443 12.1147 9.99979 12.306 10 12.5C10 13.8261 9.47322 15.0979 8.53553 16.0355C7.59785 16.9732 6.32608 17.5 5 17.5C3.67392 17.5 2.40215 16.9732 1.46447 16.0355C0.526784 15.0979 0 13.8261 0 12.5C0.00020722 12.306 0.0455707 12.1147 0.1325 11.9413L2.9775 6.25H2.5C2.16848 6.25 1.85054 6.1183 1.61612 5.88388C1.3817 5.64946 1.25 5.33152 1.25 5C1.25 4.66848 1.3817 4.35054 1.61612 4.11612C1.85054 3.8817 2.16848 3.75 2.5 3.75H7.205L9.1775 2.76375C9.52449 2.59032 9.90708 2.50003 10.295 2.5H11.25V1.25C11.25 0.918479 11.3817 0.600537 11.6161 0.366116C11.8505 0.131696 12.1685 0 12.5 0ZM5 7.795L2.51375 12.7663C2.57845 13.3806 2.86828 13.9492 3.32737 14.3624C3.78646 14.7757 4.38229 15.0044 5 15.0044C5.61771 15.0044 6.21354 14.7757 6.67263 14.3624C7.13172 13.9492 7.42155 13.3806 7.48625 12.7663L5 7.795ZM20 7.795L17.5138 12.7663C17.5768 13.3635 17.8527 13.918 18.291 14.3285C18.7293 14.739 19.3007 14.978 19.9008 15.0019C20.5008 15.0257 21.0894 14.8327 21.5589 14.4582C22.0283 14.0838 22.3473 13.5528 22.4575 12.9625L22.4862 12.7675L20 7.795Z" fill="#727272"/>
</svg>
