<svg width="26" height="24" viewBox="0 0 26 24" fill="none" xmlns="http://www.w3.org/2000/svg">
<path fill-rule="evenodd" clip-rule="evenodd" d="M0.786087 8.03262C0.550897 7.92115 0.352176 7.74521 0.213023 7.52526C0.0738699 7.30531 0 7.05039 0 6.79012C0 6.52985 0.0738699 6.27492 0.213023 6.05498C0.352176 5.83503 0.550897 5.65909 0.786087 5.54762L12.1361 0.180119C12.3868 0.0615172 12.6606 0 12.938 0C13.2153 0 13.4892 0.0615172 13.7398 0.180119L25.0898 5.54762C26.0073 5.98012 26.1236 7.17512 25.4386 7.80137V13.0401C25.4386 13.3716 25.3069 13.6896 25.0725 13.924C24.8381 14.1584 24.5201 14.2901 24.1886 14.2901C23.8571 14.2901 23.5391 14.1584 23.3047 13.924C23.0703 13.6896 22.9386 13.3716 22.9386 13.0401V9.05262L21.6886 9.64387V14.2901C21.6886 15.4392 21.4623 16.577 21.0225 17.6386C20.5828 18.7002 19.9383 19.6648 19.1258 20.4773C18.3133 21.2898 17.3487 21.9343 16.2871 22.3741C15.2255 22.8138 14.0877 23.0401 12.9386 23.0401C11.7895 23.0401 10.6517 22.8138 9.59011 22.3741C8.52851 21.9343 7.56392 21.2898 6.7514 20.4773C5.93889 19.6648 5.29437 18.7002 4.85464 17.6386C4.41491 16.577 4.18859 15.4392 4.18859 14.2901V9.64137L0.786087 8.03262ZM19.1886 8.04012H19.2273L21.8711 6.79012L12.9386 2.56512L4.00609 6.79012L6.64984 8.04012H6.68859V8.05887L12.9386 11.0139L19.1886 8.05887V8.04012ZM12.1373 13.4001L6.68859 10.8251V14.2901C6.68859 15.9477 7.34707 17.5374 8.51917 18.7095C9.69127 19.8816 11.281 20.5401 12.9386 20.5401C14.5962 20.5401 16.1859 19.8816 17.358 18.7095C18.5301 17.5374 19.1886 15.9477 19.1886 14.2901V10.8239L13.7398 13.4001C13.4893 13.5185 13.2157 13.5799 12.9386 13.5799C12.6615 13.5799 12.3879 13.5185 12.1373 13.4001Z" fill="#727272"/>
</svg>
