<svg width="42" height="42" viewBox="0 0 42 42" fill="none" xmlns="http://www.w3.org/2000/svg">
<rect width="42" height="42" rx="21" fill="#E8E8E9"/>
<g clip-path="url(#clip0_20_63)">
<path d="M17.94 14.2829L12.283 19.9399C12.0021 20.2211 11.8443 20.6024 11.8443 20.9999C11.8443 21.3974 12.0021 21.7786 12.283 22.0599L17.939 27.7179C18.2204 27.9993 18.602 28.1574 19 28.1574C19.398 28.1574 19.7796 27.9993 20.061 27.7179C20.3424 27.4365 20.5005 27.0548 20.5005 26.6569C20.5005 26.2589 20.3424 25.8773 20.061 25.5959L16.965 22.4999H28.5C28.8978 22.4999 29.2794 22.3419 29.5607 22.0605C29.842 21.7792 30 21.3977 30 20.9999C30 20.6021 29.842 20.2205 29.5607 19.9392C29.2794 19.6579 28.8978 19.4999 28.5 19.4999H16.965L20.06 16.4039C20.3413 16.1225 20.4992 15.7409 20.4991 15.343C20.499 14.9452 20.3409 14.5637 20.0595 14.2824C19.7781 14.0011 19.3965 13.8432 18.9986 13.8433C18.6008 13.8434 18.2193 14.0015 17.938 14.2829H17.94Z" fill="#030013"/>
</g>
<defs>
<clipPath id="clip0_20_63">
<rect width="24" height="24" fill="white" transform="matrix(-1 0 0 1 33 9)"/>
</clipPath>
</defs>
</svg>
