<svg width="22" height="25" viewBox="0 0 22 25" fill="none" xmlns="http://www.w3.org/2000/svg">
<path fill-rule="evenodd" clip-rule="evenodd" d="M11.9825 0C12.6455 0.000141594 13.2813 0.263627 13.75 0.7325L19.2675 6.25C19.7364 6.71873 19.9999 7.35451 20 8.0175V13.75H17.5V10H11.875C11.3777 10 10.9008 9.80246 10.5492 9.45083C10.1975 9.09919 10 8.62228 10 8.125V2.5H2.5V22.5H10V25H2.5C1.83696 25 1.20107 24.7366 0.732233 24.2678C0.263392 23.7989 0 23.163 0 22.5V2.5C0 1.83696 0.263392 1.20107 0.732233 0.732233C1.20107 0.263392 1.83696 0 2.5 0H11.9825ZM16.645 15.0637L20.395 16.3137C20.644 16.3967 20.8606 16.5559 21.0141 16.7688C21.1675 16.9817 21.2501 17.2375 21.25 17.5V19.5887C21.2502 20.9258 20.7573 22.2159 19.8657 23.2122C18.9741 24.2086 17.7463 24.8411 16.4175 24.9887C16.3062 25.0013 16.1938 25.0013 16.0825 24.9887C14.7537 24.8411 13.5259 24.2086 12.6343 23.2122C11.7427 22.2159 11.2498 20.9258 11.25 19.5887V17.5C11.2499 17.2375 11.3325 16.9817 11.4859 16.7688C11.6394 16.5559 11.856 16.3967 12.105 16.3137L15.855 15.0637C16.1114 14.9783 16.3886 14.9783 16.645 15.0637ZM16.25 17.5675L13.75 18.4013V19.5887C13.75 21.0475 14.8188 22.2763 16.25 22.49C17.6812 22.2775 18.75 21.0475 18.75 19.59V18.4013L16.25 17.5675ZM12.5 3.0175V7.5H16.9825L12.5 3.0175Z" fill="#727272"/>
</svg>
