<svg width="23" height="25" viewBox="0 0 23 25" fill="none" xmlns="http://www.w3.org/2000/svg">
<path d="M15 0C15.663 0 16.2989 0.263392 16.7678 0.732233C17.2366 1.20107 17.5 1.83696 17.5 2.5V8.75H20C20.663 8.75 21.2989 9.01339 21.7678 9.48223C22.2366 9.95108 22.5 10.587 22.5 11.25V23.625C22.5 23.8056 22.4644 23.9844 22.3953 24.1512C22.3262 24.318 22.225 24.4696 22.0973 24.5973C21.9696 24.725 21.818 24.8262 21.6512 24.8953C21.4844 24.9644 21.3056 25 21.125 25H1.375C1.19443 25 1.01563 24.9644 0.84881 24.8953C0.681988 24.8262 0.530409 24.725 0.402728 24.5973C0.275048 24.4696 0.173766 24.318 0.104666 24.1512C0.0355655 23.9844 0 23.8056 0 23.625V2.5C0 1.83696 0.263392 1.20107 0.732233 0.732233C1.20107 0.263392 1.83696 0 2.5 0H15ZM15 2.5H2.5V22.5H5V18.75C5 17.7554 5.39509 16.8016 6.09835 16.0984C6.80161 15.3951 7.75544 15 8.75 15C9.74456 15 10.6984 15.3951 11.4017 16.0984C12.1049 16.8016 12.5 17.7554 12.5 18.75V22.5H15V2.5ZM20 11.25H17.5V22.5H20V11.25ZM8.75 17.5C8.44383 17.5 8.14833 17.6124 7.91953 17.8159C7.69074 18.0193 7.54457 18.2997 7.50875 18.6038L7.5 18.75V22.5H10V18.75C10 18.4185 9.8683 18.1005 9.63388 17.8661C9.39946 17.6317 9.08152 17.5 8.75 17.5ZM8.75 5C9.08152 5 9.39946 5.1317 9.63388 5.36612C9.8683 5.60054 10 5.91848 10 6.25V7.5H11.25C11.5815 7.5 11.8995 7.6317 12.1339 7.86612C12.3683 8.10054 12.5 8.41848 12.5 8.75C12.5 9.08152 12.3683 9.39946 12.1339 9.63389C11.8995 9.86831 11.5815 10 11.25 10H10V11.25C10 11.5815 9.8683 11.8995 9.63388 12.1339C9.39946 12.3683 9.08152 12.5 8.75 12.5C8.41848 12.5 8.10054 12.3683 7.86612 12.1339C7.6317 11.8995 7.5 11.5815 7.5 11.25V10H6.25C5.91848 10 5.60054 9.86831 5.36612 9.63389C5.1317 9.39946 5 9.08152 5 8.75C5 8.41848 5.1317 8.10054 5.36612 7.86612C5.60054 7.6317 5.91848 7.5 6.25 7.5H7.5V6.25C7.5 5.91848 7.6317 5.60054 7.86612 5.36612C8.10054 5.1317 8.41848 5 8.75 5Z" fill="#727272"/>
</svg>
