<svg width="25" height="23" viewBox="0 0 25 23" fill="none" xmlns="http://www.w3.org/2000/svg">
<path fill-rule="evenodd" clip-rule="evenodd" d="M8.74743 0.000311908C7.42135 0.000311908 6.14958 0.527096 5.2119 1.46478C4.27421 2.40246 3.74743 3.67423 3.74743 5.00031V6.40781C2.67463 6.68586 1.72453 7.31228 1.04627 8.18873C0.368013 9.06519 0 10.1421 0 11.2503C0 12.3586 0.368013 13.4354 1.04627 14.3119C1.72453 15.1883 2.67463 15.8148 3.74743 16.0928V17.5003C3.74737 18.5159 4.0566 19.5075 4.63398 20.3431C5.21135 21.1786 6.02949 21.8185 6.97952 22.1776C7.92954 22.5367 8.9664 22.598 9.95212 22.3533C10.9378 22.1086 11.8257 21.5695 12.4974 20.8078C13.1692 21.5695 14.057 22.1086 15.0427 22.3533C16.0285 22.598 17.0653 22.5367 18.0153 22.1776C18.9654 21.8185 19.7835 21.1786 20.3609 20.3431C20.9383 19.5075 21.2475 18.5159 21.2474 17.5003V16.0928C22.3202 15.8148 23.2703 15.1883 23.9486 14.3119C24.6268 13.4354 24.9949 12.3586 24.9949 11.2503C24.9949 10.1421 24.6268 9.06519 23.9486 8.18873C23.2703 7.31228 22.3202 6.68586 21.2474 6.40781V5.00031C21.2475 3.98468 20.9383 2.99311 20.3609 2.15756C19.7835 1.322 18.9654 0.682094 18.0153 0.322984C17.0653 -0.0361257 16.0285 -0.0974062 15.0427 0.147298C14.057 0.392003 13.1692 0.931087 12.4974 1.69281C12.0287 1.16021 11.4517 0.733735 10.8051 0.441871C10.1584 0.150007 9.45691 -0.000529858 8.74743 0.000311908ZM18.7474 7.50031V5.00031C18.7474 4.33727 18.484 3.70139 18.0152 3.23254C17.5464 2.7637 16.9105 2.50031 16.2474 2.50031C15.5844 2.50031 14.9485 2.7637 14.4797 3.23254C14.0108 3.70139 13.7474 4.33727 13.7474 5.00031V10.6691C14.5072 10.2296 15.3697 9.99891 16.2474 10.0003C16.579 10.0003 16.8969 10.132 17.1313 10.3664C17.3657 10.6008 17.4974 10.9188 17.4974 11.2503C17.4974 11.5818 17.3657 11.8998 17.1313 12.1342C16.8969 12.3686 16.579 12.5003 16.2474 12.5003C15.5844 12.5003 14.9485 12.7637 14.4797 13.2325C14.0108 13.7014 13.7474 14.3373 13.7474 15.0003V17.5003C13.7474 18.1634 14.0108 18.7992 14.4797 19.2681C14.9485 19.7369 15.5844 20.0003 16.2474 20.0003C16.9105 20.0003 17.5464 19.7369 18.0152 19.2681C18.484 18.7992 18.7474 18.1634 18.7474 17.5003V16.0928C18.6069 16.0565 18.468 16.0139 18.3312 15.9653C18.0186 15.8549 17.7626 15.6249 17.6196 15.3257C17.4766 15.0266 17.4583 14.6829 17.5687 14.3703C17.6791 14.0577 17.9091 13.8017 18.2083 13.6587C18.5074 13.5157 18.8511 13.4974 19.1637 13.6078C19.5069 13.7289 19.8724 13.7737 20.2347 13.7389C20.597 13.7041 20.9473 13.5906 21.2612 13.4064C21.575 13.2221 21.8449 12.9716 22.0519 12.6722C22.2589 12.3729 22.3981 12.0319 22.4596 11.6732C22.5212 11.3145 22.5037 10.9467 22.4084 10.5955C22.313 10.2442 22.1422 9.91802 21.9077 9.63967C21.6732 9.36132 21.3808 9.13752 21.0508 8.9839C20.7209 8.83029 20.3614 8.75057 19.9974 8.75031C19.6659 8.75031 19.348 8.61862 19.1135 8.3842C18.8791 8.14977 18.7474 7.83183 18.7474 7.50031ZM8.74743 12.5003C9.41047 12.5003 10.0464 12.7637 10.5152 13.2325C10.984 13.7014 11.2474 14.3373 11.2474 15.0003V17.5003C11.2474 18.1634 10.984 18.7992 10.5152 19.2681C10.0464 19.7369 9.41047 20.0003 8.74743 20.0003C8.08439 20.0003 7.4485 19.7369 6.97966 19.2681C6.51082 18.7992 6.24743 18.1634 6.24743 17.5003V16.0928C6.38868 16.0553 6.52743 16.0141 6.66368 15.9653C6.9763 15.8549 7.23227 15.6249 7.37527 15.3257C7.51826 15.0266 7.53658 14.6829 7.42618 14.3703C7.31578 14.0577 7.08572 13.8017 6.7866 13.6587C6.48748 13.5157 6.1438 13.4974 5.83118 13.6078C5.48797 13.7289 5.12246 13.7737 4.76018 13.7389C4.39789 13.7041 4.04757 13.5906 3.7337 13.4064C3.41982 13.2221 3.14995 12.9716 2.94295 12.6722C2.73595 12.3729 2.5968 12.0319 2.53523 11.6732C2.47366 11.3145 2.49116 10.9467 2.58649 10.5955C2.68182 10.2442 2.8527 9.91802 3.08718 9.63967C3.32166 9.36132 3.61408 9.13752 3.94403 8.9839C4.27397 8.83029 4.63348 8.75057 4.99743 8.75031C5.32895 8.75031 5.64689 8.61862 5.88131 8.3842C6.11573 8.14977 6.24743 7.83183 6.24743 7.50031V5.00031C6.24743 4.33727 6.51082 3.70139 6.97966 3.23254C7.4485 2.7637 8.08439 2.50031 8.74743 2.50031C9.41047 2.50031 10.0464 2.7637 10.5152 3.23254C10.984 3.70139 11.2474 4.33727 11.2474 5.00031V10.6691C10.4876 10.2296 9.62515 9.99891 8.74743 10.0003C8.41591 10.0003 8.09797 10.132 7.86355 10.3664C7.62913 10.6008 7.49743 10.9188 7.49743 11.2503C7.49743 11.5818 7.62913 11.8998 7.86355 12.1342C8.09797 12.3686 8.41591 12.5003 8.74743 12.5003Z" fill="#727272"/>
</svg>
