<svg width="25" height="22" viewBox="0 0 25 22" fill="none" xmlns="http://www.w3.org/2000/svg">
<path d="M17.2057 0C17.902 2.366e-05 18.5846 0.193917 19.1769 0.559961C19.7692 0.926005 20.248 1.44974 20.5595 2.0725L22.2882 5.52875C22.5932 5.40375 22.8969 5.2775 23.1919 5.13125C23.4887 4.98306 23.8321 4.95881 24.1467 5.06383C24.4613 5.16885 24.7213 5.39454 24.8695 5.69125C25.0176 5.98796 25.0419 6.33139 24.9369 6.64598C24.8319 6.96057 24.6062 7.22056 24.3095 7.36875C23.692 7.67625 23.4095 7.77125 23.4095 7.77125L24.6045 10.1625C24.8657 10.6838 25.0007 11.2575 25.0007 11.84V15C25.0015 15.5277 24.8905 16.0496 24.675 16.5314C24.4596 17.0131 24.1446 17.4438 23.7507 17.795V19.375C23.7507 19.8723 23.5532 20.3492 23.2015 20.7008C22.8499 21.0525 22.373 21.25 21.8757 21.25C21.3784 21.25 20.9015 21.0525 20.5499 20.7008C20.1982 20.3492 20.0007 19.8723 20.0007 19.375V18.75H5.0007V19.375C5.0007 19.8723 4.80316 20.3492 4.45153 20.7008C4.0999 21.0525 3.62298 21.25 3.1257 21.25C2.62842 21.25 2.15151 21.0525 1.79988 20.7008C1.44825 20.3492 1.2507 19.8723 1.2507 19.375V17.795C0.483202 17.1075 0.000701688 16.11 0.000701688 15V11.84C0.000935286 11.2581 0.136597 10.6842 0.396952 10.1637L1.59195 7.77125C1.28919 7.64569 0.989911 7.51189 0.694452 7.37C0.547113 7.2969 0.415649 7.19544 0.307595 7.07144C0.199541 6.94744 0.117021 6.80333 0.0647651 6.64738C0.0125095 6.49142 -0.00845437 6.32669 0.00307485 6.16262C0.0146041 5.99855 0.0583997 5.83836 0.131952 5.69125C0.283414 5.39608 0.544873 5.17231 0.859889 5.06824C1.17491 4.96417 1.51821 4.98815 1.8157 5.135C2.10945 5.2775 2.4107 5.40625 2.7132 5.52875L4.44195 2.0725C4.75344 1.44974 5.23216 0.926005 5.8245 0.559961C6.41683 0.193917 7.09939 2.366e-05 7.7957 0H17.2057ZM21.0432 8.63C18.9182 9.30125 15.8945 10 12.5007 10C9.10695 10 6.0832 9.3 3.9582 8.63L2.6332 11.28C2.54608 11.4538 2.50071 11.6456 2.5007 11.84V15C2.5007 15.3315 2.6324 15.6495 2.86682 15.8839C3.10124 16.1183 3.41918 16.25 3.7507 16.25H21.2507C21.5822 16.25 21.9002 16.1183 22.1346 15.8839C22.369 15.6495 22.5007 15.3315 22.5007 15V11.84C22.5005 11.646 22.4551 11.4547 22.3682 11.2812L21.0432 8.63ZM6.8757 11.25C7.37298 11.25 7.8499 11.4475 8.20153 11.7992C8.55316 12.1508 8.7507 12.6277 8.7507 13.125C8.7507 13.6223 8.55316 14.0992 8.20153 14.4508C7.8499 14.8025 7.37298 15 6.8757 15C6.37842 15 5.90151 14.8025 5.54988 14.4508C5.19825 14.0992 5.0007 13.6223 5.0007 13.125C5.0007 12.6277 5.19825 12.1508 5.54988 11.7992C5.90151 11.4475 6.37842 11.25 6.8757 11.25ZM18.1257 11.25C18.623 11.25 19.0999 11.4475 19.4515 11.7992C19.8032 12.1508 20.0007 12.6277 20.0007 13.125C20.0007 13.6223 19.8032 14.0992 19.4515 14.4508C19.0999 14.8025 18.623 15 18.1257 15C17.6284 15 17.1515 14.8025 16.7999 14.4508C16.4482 14.0992 16.2507 13.6223 16.2507 13.125C16.2507 12.6277 16.4482 12.1508 16.7999 11.7992C17.1515 11.4475 17.6284 11.25 18.1257 11.25ZM17.2057 2.5H7.7957C7.56362 2.50012 7.33616 2.56485 7.13879 2.68694C6.94142 2.80903 6.78194 2.98365 6.6782 3.19125L5.0907 6.3625C7.0257 6.94375 9.6332 7.5 12.5007 7.5C15.3682 7.5 17.9757 6.94375 19.9095 6.3625L18.3232 3.19125C18.2195 2.98365 18.06 2.80903 17.8626 2.68694C17.6652 2.56485 17.4378 2.50012 17.2057 2.5Z" fill="#727272"/>
</svg>
