<svg width="25" height="25" viewBox="0 0 25 25" fill="none" xmlns="http://www.w3.org/2000/svg">
<path fill-rule="evenodd" clip-rule="evenodd" d="M13.75 1.25C13.75 0.918479 13.6183 0.600537 13.3839 0.366116C13.1495 0.131696 12.8315 0 12.5 0C12.1685 0 11.8505 0.131696 11.6161 0.366116C11.3817 0.600537 11.25 0.918479 11.25 1.25V1.875C11.25 2.20652 11.3817 2.52446 11.6161 2.75888C11.8505 2.9933 12.1685 3.125 12.5 3.125C12.8315 3.125 13.1495 2.9933 13.3839 2.75888C13.6183 2.52446 13.75 2.20652 13.75 1.875V1.25ZM3.125 12.5C3.125 12.8315 2.9933 13.1495 2.75888 13.3839C2.52446 13.6183 2.20652 13.75 1.875 13.75H1.25C0.918479 13.75 0.600537 13.6183 0.366116 13.3839C0.131696 13.1495 0 12.8315 0 12.5C0 12.1685 0.131696 11.8505 0.366116 11.6161C0.600537 11.3817 0.918479 11.25 1.25 11.25H1.875C2.20652 11.25 2.52446 11.3817 2.75888 11.6161C2.9933 11.8505 3.125 12.1685 3.125 12.5ZM25 12.5C25 12.8315 24.8683 13.1495 24.6339 13.3839C24.3995 13.6183 24.0815 13.75 23.75 13.75H23.125C22.7935 13.75 22.4755 13.6183 22.2411 13.3839C22.0067 13.1495 21.875 12.8315 21.875 12.5C21.875 12.1685 22.0067 11.8505 22.2411 11.6161C22.4755 11.3817 22.7935 11.25 23.125 11.25H23.75C24.0815 11.25 24.3995 11.3817 24.6339 11.6161C24.8683 11.8505 25 12.1685 25 12.5ZM12.5 21.875C12.8315 21.875 13.1495 22.0067 13.3839 22.2411C13.6183 22.4755 13.75 22.7935 13.75 23.125V23.75C13.75 24.0815 13.6183 24.3995 13.3839 24.6339C13.1495 24.8683 12.8315 25 12.5 25C12.1685 25 11.8505 24.8683 11.6161 24.6339C11.3817 24.3995 11.25 24.0815 11.25 23.75V23.125C11.25 22.7935 11.3817 22.4755 11.6161 22.2411C11.8505 22.0067 12.1685 21.875 12.5 21.875ZM22.2225 4.545C22.4502 4.30925 22.5762 3.99349 22.5733 3.66575C22.5705 3.338 22.439 3.02449 22.2073 2.79273C21.9755 2.56097 21.662 2.42951 21.3343 2.42666C21.0065 2.42381 20.6908 2.5498 20.455 2.7775L17.8037 5.4275C17.6876 5.54356 17.5955 5.68135 17.5326 5.83302C17.4697 5.98468 17.4373 6.14725 17.4372 6.31143C17.4372 6.47562 17.4695 6.63821 17.5322 6.78992C17.595 6.94163 17.6871 7.07949 17.8031 7.19563C17.9192 7.31176 18.057 7.4039 18.2086 7.46679C18.3603 7.52967 18.5229 7.56207 18.6871 7.56213C18.8512 7.56219 19.0138 7.5299 19.1655 7.46713C19.3173 7.40435 19.4551 7.31231 19.5712 7.19625L22.2225 4.545ZM7.1975 17.8037C7.43184 18.0382 7.56348 18.356 7.56348 18.6875C7.56348 19.019 7.43184 19.3368 7.1975 19.5712L4.54375 22.225C4.3092 22.4594 3.99115 22.591 3.65956 22.5909C3.32797 22.5908 3.01001 22.4589 2.77562 22.2244C2.54124 21.9898 2.40963 21.6718 2.40975 21.3402C2.40986 21.0086 2.5417 20.6906 2.77625 20.4562L5.4275 17.8063C5.66191 17.5719 5.97979 17.4403 6.31125 17.4403C6.6427 17.4403 6.96059 17.5719 7.195 17.8063M4.54375 2.7775C4.308 2.5498 3.99224 2.42381 3.6645 2.42666C3.33675 2.42951 3.02324 2.56097 2.79148 2.79273C2.55972 3.02449 2.42826 3.338 2.42541 3.66575C2.42256 3.99349 2.54855 4.30925 2.77625 4.545L5.42625 7.19625C5.66063 7.4308 5.9786 7.56264 6.31018 7.56275C6.64177 7.56287 6.95982 7.43126 7.19438 7.19688C7.42893 6.96249 7.56076 6.64453 7.56088 6.31294C7.561 5.98135 7.42939 5.6633 7.195 5.42875L4.54375 2.7775ZM17.8025 17.8037C18.0369 17.5694 18.3548 17.4378 18.6862 17.4378C19.0177 17.4378 19.3356 17.5694 19.57 17.8037L22.2213 20.455C22.3374 20.5711 22.4295 20.7088 22.4924 20.8605C22.5553 21.0122 22.5877 21.1747 22.5878 21.3389C22.5878 21.5031 22.5555 21.6657 22.4928 21.8174C22.43 21.9691 22.3379 22.107 22.2219 22.2231C22.1058 22.3393 21.968 22.4314 21.8164 22.4943C21.6647 22.5572 21.5021 22.5896 21.3379 22.5896C21.1738 22.5897 21.0112 22.5574 20.8595 22.4946C20.7077 22.4319 20.5699 22.3398 20.4538 22.2237L17.8025 19.5712C17.5682 19.3368 17.4365 19.019 17.4365 18.6875C17.4365 18.356 17.5682 18.0382 17.8025 17.8037ZM13.685 5.175C13.5995 4.93026 13.4399 4.71817 13.2285 4.56811C13.0171 4.41805 12.7643 4.33743 12.505 4.33743C12.2457 4.33743 11.9929 4.41805 11.7815 4.56811C11.5701 4.71817 11.4105 4.93026 11.325 5.175C10.8272 6.59597 10.0159 7.88664 8.95128 8.95128C7.88664 10.0159 6.59597 10.8272 5.175 11.325C4.93026 11.4105 4.71817 11.5701 4.56811 11.7815C4.41805 11.9929 4.33743 12.2457 4.33743 12.505C4.33743 12.7643 4.41805 13.0171 4.56811 13.2285C4.71817 13.4399 4.93026 13.5995 5.175 13.685C6.59592 14.1829 7.88656 14.9942 8.95119 16.0588C10.0158 17.1234 10.8271 18.4141 11.325 19.835C11.4105 20.0797 11.5701 20.2918 11.7815 20.4419C11.9929 20.592 12.2457 20.6726 12.505 20.6726C12.7643 20.6726 13.0171 20.592 13.2285 20.4419C13.4399 20.2918 13.5995 20.0797 13.685 19.835C14.1829 18.4141 14.9942 17.1234 16.0588 16.0588C17.1234 14.9942 18.4141 14.1829 19.835 13.685C20.0797 13.5995 20.2918 13.4399 20.4419 13.2285C20.592 13.0171 20.6726 12.7643 20.6726 12.505C20.6726 12.2457 20.592 11.9929 20.4419 11.7815C20.2918 11.5701 20.0797 11.4105 19.835 11.325C18.4141 10.8271 17.1234 10.0158 16.0588 8.95119C14.9942 7.88656 14.1829 6.59592 13.685 5.175ZM12.505 16.5425C11.487 14.9045 10.1055 13.523 8.4675 12.505C10.1055 11.4871 11.4871 10.1055 12.505 8.4675C13.523 10.1055 14.9045 11.487 16.5425 12.505C14.9045 13.523 13.523 14.9045 12.505 16.5425Z" fill="#727272"/>
</svg>
