<svg width="23" height="23" viewBox="0 0 23 23" fill="none" xmlns="http://www.w3.org/2000/svg">
<path fill-rule="evenodd" clip-rule="evenodd" d="M7.5 1.25C7.5 0.918479 7.6317 0.600537 7.86612 0.366116C8.10054 0.131696 8.41848 0 8.75 0H13.75C14.0815 0 14.3995 0.131696 14.6339 0.366116C14.8683 0.600537 15 0.918479 15 1.25C15 1.58152 14.8683 1.89946 14.6339 2.13388C14.3995 2.3683 14.0815 2.5 13.75 2.5H12.5V3.79375C19.3 4.40625 23.7625 11.4588 21.1613 17.9638C21.0685 18.1959 20.9083 18.3949 20.7013 18.5351C20.4943 18.6752 20.25 18.7501 20 18.75H2.5C2.25022 18.7498 2.00622 18.6749 1.79946 18.5347C1.5927 18.3946 1.43267 18.1957 1.34 17.9638C-1.2625 11.4588 3.2 4.40625 10 3.79375V2.5H8.75C8.41848 2.5 8.10054 2.3683 7.86612 2.13388C7.6317 1.89946 7.5 1.58152 7.5 1.25ZM10.9625 6.25C5.68 6.25 1.9825 11.3162 3.39125 16.25H19.1088C20.5175 11.3162 16.82 6.25 11.5375 6.25H10.9625ZM0 21.25C0 20.9185 0.131696 20.6005 0.366116 20.3661C0.600537 20.1317 0.918479 20 1.25 20H21.25C21.5815 20 21.8995 20.1317 22.1339 20.3661C22.3683 20.6005 22.5 20.9185 22.5 21.25C22.5 21.5815 22.3683 21.8995 22.1339 22.1339C21.8995 22.3683 21.5815 22.5 21.25 22.5H1.25C0.918479 22.5 0.600537 22.3683 0.366116 22.1339C0.131696 21.8995 0 21.5815 0 21.25Z" fill="#727272"/>
</svg>
