<svg width="15" height="19" viewBox="0 0 15 19" fill="none" xmlns="http://www.w3.org/2000/svg">
<path fill-rule="evenodd" clip-rule="evenodd" d="M8.52635 0.302288C9.05302 -0.329379 10.0789 0.102288 9.99552 0.920621L9.40719 6.66896H14.1664C14.3247 6.66901 14.4797 6.71419 14.6134 6.79918C14.747 6.88418 14.8536 7.00548 14.9207 7.14888C14.9879 7.29228 15.0128 7.45184 14.9925 7.60889C14.9723 7.76593 14.9077 7.91395 14.8064 8.03562L6.47302 18.0356C5.94635 18.6673 4.92052 18.2356 5.00385 17.4173L5.59219 11.669H0.833021C0.674676 11.6689 0.519625 11.6237 0.386025 11.5387C0.252425 11.4537 0.145805 11.3324 0.0786521 11.189C0.0114989 11.0456 -0.0134086 10.8861 0.00684642 10.729C0.0271015 10.572 0.0916806 10.424 0.193022 10.3023L8.52635 0.302288ZM2.61219 10.0023H7.06885C7.11544 10.0023 7.16151 10.0121 7.20409 10.031C7.24667 10.0499 7.28481 10.0775 7.31606 10.112C7.34731 10.1466 7.37098 10.1873 7.38552 10.2315C7.40007 10.2758 7.40518 10.3226 7.40052 10.369L6.93969 14.8731L12.3872 8.33562H7.93052C7.88394 8.33562 7.83787 8.32586 7.79529 8.30696C7.75271 8.28806 7.71456 8.26045 7.68331 8.2259C7.65206 8.19135 7.6284 8.15063 7.61385 8.10638C7.59931 8.06212 7.5942 8.01531 7.59885 7.96896L8.05969 3.46562L2.61219 10.0023Z" fill="#060318"/>
</svg>
