<svg width="25" height="24" viewBox="0 0 25 24" fill="none" xmlns="http://www.w3.org/2000/svg">
<path fill-rule="evenodd" clip-rule="evenodd" d="M13.7811 0.0959731C14.0498 0.00654131 14.3352 -0.020878 14.616 0.0157729C14.8968 0.0524239 15.1656 0.152193 15.4023 0.307593C15.639 0.462993 15.8375 0.669988 15.9827 0.913042C16.128 1.1561 16.2163 1.4289 16.2411 1.71097L16.2486 1.87597V8.73347L20.9911 9.68347C21.3863 9.76223 21.7457 9.96623 22.0158 10.2652C22.286 10.5642 22.4527 10.9423 22.4911 11.3435L22.4986 11.521V21.0085H23.7486C24.0672 21.0088 24.3737 21.1308 24.6053 21.3495C24.837 21.5682 24.9764 21.8672 24.9951 22.1852C25.0138 22.5033 24.9103 22.8164 24.7058 23.0608C24.5013 23.3051 24.2112 23.4621 23.8949 23.4997L23.7486 23.5085H1.24862C0.930016 23.5081 0.623575 23.3861 0.391905 23.1674C0.160235 22.9487 0.0208214 22.6498 0.00215004 22.3317C-0.0165214 22.0137 0.0869584 21.7005 0.291446 21.4562C0.495934 21.2119 0.785995 21.0549 1.10237 21.0172L1.24862 21.0085H2.49862V5.20847C2.49862 4.45847 2.94361 3.78847 3.62111 3.49097L3.78112 3.42972L13.7811 0.0959731ZM13.7486 2.74347L4.99862 5.65972V21.0085H13.7486V2.74347ZM16.2486 11.2847V21.0085H19.9986V12.0335L16.2486 11.2847Z" fill="#727272"/>
</svg>
