<svg width="42" height="42" viewBox="0 0 42 42" fill="none" xmlns="http://www.w3.org/2000/svg">
<rect width="42" height="42" rx="21" fill="#E8E8E9"/>
<g clip-path="url(#clip0_20_68)">
<path d="M24.06 14.2829L29.717 19.9399C29.9979 20.2211 30.1557 20.6024 30.1557 20.9999C30.1557 21.3974 29.9979 21.7786 29.717 22.0599L24.061 27.7179C23.7796 27.9993 23.398 28.1574 23 28.1574C22.602 28.1574 22.2204 27.9993 21.939 27.7179C21.6576 27.4365 21.4995 27.0548 21.4995 26.6569C21.4995 26.2589 21.6576 25.8773 21.939 25.5959L25.035 22.4999H13.5C13.1022 22.4999 12.7206 22.3419 12.4393 22.0605C12.158 21.7792 12 21.3977 12 20.9999C12 20.6021 12.158 20.2205 12.4393 19.9392C12.7206 19.6579 13.1022 19.4999 13.5 19.4999H25.035L21.94 16.4039C21.6587 16.1225 21.5008 15.7409 21.5009 15.343C21.501 14.9452 21.6591 14.5637 21.9405 14.2824C22.2219 14.0011 22.6035 13.8432 23.0014 13.8433C23.3992 13.8434 23.7807 14.0015 24.062 14.2829H24.06Z" fill="#030013"/>
</g>
<defs>
<clipPath id="clip0_20_68">
<rect width="24" height="24" fill="white" transform="translate(9 9)"/>
</clipPath>
</defs>
</svg>
