<svg width="23" height="23" viewBox="0 0 23 23" fill="none" xmlns="http://www.w3.org/2000/svg">
<path d="M1.25 16.25C1.55617 16.25 1.85167 16.3624 2.08046 16.5659C2.30926 16.7693 2.45543 17.0497 2.49125 17.3537L2.5 17.5V20H5C5.3186 20.0004 5.62504 20.1223 5.85671 20.3411C6.08838 20.5598 6.22779 20.8587 6.24646 21.1767C6.26514 21.4948 6.16166 21.808 5.95717 22.0523C5.75268 22.2966 5.46262 22.4536 5.14625 22.4912L5 22.5H2.5C1.86928 22.5002 1.26179 22.262 0.799315 21.8331C0.336838 21.4043 0.0535541 20.8164 0.00625014 20.1875L0 20V17.5C0 17.1685 0.131696 16.8505 0.366116 16.6161C0.600537 16.3817 0.918479 16.25 1.25 16.25ZM21.25 16.25C21.5815 16.25 21.8995 16.3817 22.1339 16.6161C22.3683 16.8505 22.5 17.1685 22.5 17.5V20C22.5 20.663 22.2366 21.2989 21.7678 21.7678C21.2989 22.2366 20.663 22.5 20 22.5H17.5C17.1685 22.5 16.8505 22.3683 16.6161 22.1339C16.3817 21.8995 16.25 21.5815 16.25 21.25C16.25 20.9185 16.3817 20.6005 16.6161 20.3661C16.8505 20.1317 17.1685 20 17.5 20H20V17.5C20 17.1685 20.1317 16.8505 20.3661 16.6161C20.6005 16.3817 20.9185 16.25 21.25 16.25ZM14.75 13.5713C14.8666 13.4536 15.0055 13.3603 15.1585 13.2968C15.3115 13.2333 15.4755 13.2008 15.6412 13.2013C15.8069 13.2017 15.9708 13.2351 16.1234 13.2995C16.276 13.3638 16.4144 13.4579 16.5303 13.5762C16.6463 13.6945 16.7376 13.8346 16.7989 13.9885C16.8603 14.1424 16.8904 14.3069 16.8876 14.4726C16.8847 14.6382 16.849 14.8016 16.7825 14.9533C16.716 15.105 16.6199 15.242 16.5 15.3562C15.0992 16.7322 13.2135 17.5022 11.25 17.5C9.28646 17.5022 7.40079 16.7322 6 15.3562C5.88007 15.242 5.78404 15.105 5.71751 14.9533C5.65097 14.8016 5.61526 14.6382 5.61243 14.4726C5.60961 14.3069 5.63974 14.1424 5.70106 13.9885C5.76239 13.8346 5.85369 13.6945 5.96966 13.5762C6.08563 13.4579 6.22396 13.3638 6.3766 13.2995C6.52924 13.2351 6.69315 13.2017 6.8588 13.2013C7.02446 13.2008 7.18855 13.2333 7.34154 13.2968C7.49454 13.3603 7.63338 13.4536 7.75 13.5713C8.68353 14.489 9.94089 15.0023 11.25 15C12.6125 15 13.8463 14.4563 14.75 13.5713ZM6.875 6.25C7.37228 6.25 7.84919 6.44754 8.20083 6.79917C8.55246 7.15081 8.75 7.62772 8.75 8.125C8.75 8.62228 8.55246 9.09919 8.20083 9.45083C7.84919 9.80246 7.37228 10 6.875 10C6.37772 10 5.90081 9.80246 5.54917 9.45083C5.19754 9.09919 5 8.62228 5 8.125C5 7.62772 5.19754 7.15081 5.54917 6.79917C5.90081 6.44754 6.37772 6.25 6.875 6.25ZM15.625 6.25C16.1223 6.25 16.5992 6.44754 16.9508 6.79917C17.3025 7.15081 17.5 7.62772 17.5 8.125C17.5 8.62228 17.3025 9.09919 16.9508 9.45083C16.5992 9.80246 16.1223 10 15.625 10C15.1277 10 14.6508 9.80246 14.2992 9.45083C13.9475 9.09919 13.75 8.62228 13.75 8.125C13.75 7.62772 13.9475 7.15081 14.2992 6.79917C14.6508 6.44754 15.1277 6.25 15.625 6.25ZM5 0C5.33152 0 5.64946 0.131696 5.88388 0.366116C6.1183 0.600537 6.25 0.918479 6.25 1.25C6.25 1.58152 6.1183 1.89946 5.88388 2.13388C5.64946 2.3683 5.33152 2.5 5 2.5H2.5V5C2.5 5.33152 2.3683 5.64946 2.13388 5.88388C1.89946 6.1183 1.58152 6.25 1.25 6.25C0.918479 6.25 0.600537 6.1183 0.366116 5.88388C0.131696 5.64946 0 5.33152 0 5V2.5C0 1.83696 0.263392 1.20107 0.732233 0.732233C1.20107 0.263392 1.83696 0 2.5 0H5ZM20 0C20.663 0 21.2989 0.263392 21.7678 0.732233C22.2366 1.20107 22.5 1.83696 22.5 2.5V5C22.5 5.33152 22.3683 5.64946 22.1339 5.88388C21.8995 6.1183 21.5815 6.25 21.25 6.25C20.9185 6.25 20.6005 6.1183 20.3661 5.88388C20.1317 5.64946 20 5.33152 20 5V2.5H17.5C17.1685 2.5 16.8505 2.3683 16.6161 2.13388C16.3817 1.89946 16.25 1.58152 16.25 1.25C16.25 0.918479 16.3817 0.600537 16.6161 0.366116C16.8505 0.131696 17.1685 0 17.5 0H20Z" fill="#727272"/>
</svg>
