<svg width="26" height="19" viewBox="0 0 26 19" fill="none" xmlns="http://www.w3.org/2000/svg">
<path fill-rule="evenodd" clip-rule="evenodd" d="M0.915978 0.914963C1.28827 0.54278 1.74855 0.270678 2.25411 0.12391C2.75966 -0.022858 3.29409 -0.0395341 3.80781 0.0754291C4.32153 0.190392 4.79788 0.433269 5.19265 0.781517C5.58743 1.12977 5.88783 1.5721 6.06598 2.06746C7.59928 1.45574 9.27431 1.29005 10.8977 1.58952C12.5212 1.88899 14.0269 2.64142 15.241 3.75996L15.4997 4.00746L25.2222 13.7312C25.4374 13.9465 25.5667 14.2328 25.5858 14.5366C25.6049 14.8404 25.5125 15.1407 25.326 15.3812L25.2222 15.4987L22.571 18.15C22.3837 18.3373 22.1417 18.4603 21.8799 18.5012C21.6182 18.5421 21.3502 18.4987 21.1147 18.3775L20.976 18.2937L16.496 15.1937C15.2156 17.0498 13.268 18.3399 11.0596 18.795C8.85109 19.2501 6.55217 18.8351 4.64226 17.6365C2.73235 16.4378 1.35889 14.5481 0.80834 12.3615C0.257786 10.1749 0.572636 7.86011 1.68723 5.89996C1.2509 5.67386 0.874048 5.34805 0.587271 4.94897C0.300495 4.54989 0.11188 4.08881 0.0367428 3.60316C-0.0383943 3.1175 0.00206442 2.62098 0.154834 2.1539C0.307603 1.68682 0.568377 1.26235 0.915978 0.914963ZM4.89348 5.77621C4.25004 6.421 3.75533 7.19864 3.44397 8.05469C3.13262 8.91073 3.01215 9.82449 3.09099 10.732C3.16984 11.6395 3.4461 12.5188 3.90044 13.3083C4.35477 14.0978 4.97619 14.7785 5.72119 15.3026C6.46619 15.8268 7.31675 16.1817 8.21334 16.3427C9.10992 16.5036 10.0308 16.4666 10.9116 16.2343C11.7924 16.0019 12.6118 15.5799 13.3123 14.9977C14.0129 14.4155 14.5777 13.6871 14.9672 12.8637C15.0446 12.6996 15.1568 12.5544 15.296 12.438C15.4352 12.3216 15.598 12.237 15.7732 12.1899C15.9484 12.1428 16.1318 12.1344 16.3106 12.1652C16.4893 12.1961 16.6592 12.2656 16.8085 12.3687L21.541 15.6437L22.571 14.615L13.7322 5.77621C12.5601 4.60414 10.9704 3.94567 9.31285 3.94567C7.65527 3.94567 6.06558 4.60414 4.89348 5.77621ZM11.9635 7.54371C12.3164 7.89085 12.5971 8.30442 12.7894 8.76058C12.9817 9.21673 13.0817 9.70645 13.0838 10.2015C13.0859 10.6965 12.9899 11.187 12.8015 11.6448C12.613 12.1025 12.3358 12.5184 11.9858 12.8685C11.6358 13.2186 11.2199 13.4959 10.7622 13.6845C10.3045 13.873 9.81402 13.9691 9.319 13.9671C8.82397 13.9652 8.33424 13.8652 7.87803 13.6731C7.42183 13.4809 7.00819 13.2003 6.66098 12.8475C5.95766 12.1441 5.56254 11.1902 5.56254 10.1956C5.56254 9.20094 5.95766 8.24704 6.66098 7.54371C7.3643 6.84039 8.31821 6.44527 9.31285 6.44527C10.3075 6.44527 11.2614 6.84039 11.9647 7.54371M8.42973 9.31246C8.31034 9.42777 8.21511 9.5657 8.1496 9.71821C8.08409 9.87071 8.04961 10.0347 8.04817 10.2007C8.04672 10.3667 8.07835 10.5313 8.1412 10.6849C8.20405 10.8385 8.29687 10.9781 8.41423 11.0955C8.5316 11.2128 8.67116 11.3056 8.82479 11.3685C8.97841 11.4313 9.143 11.463 9.30898 11.4615C9.47495 11.4601 9.63898 11.4256 9.79148 11.3601C9.94399 11.2946 10.0819 11.1994 10.1972 11.08C10.4318 10.8456 10.5636 10.5276 10.5637 10.196C10.5638 9.86444 10.4322 9.54639 10.1979 9.31184C9.96347 9.07729 9.64551 8.94545 9.31392 8.94534C8.98233 8.94522 8.66428 9.07683 8.42973 9.31121M3.56848 2.68121C3.51082 2.62152 3.44186 2.57391 3.36561 2.54115C3.28935 2.50839 3.20734 2.49115 3.12435 2.49043C3.04137 2.48971 2.95907 2.50552 2.88226 2.53695C2.80545 2.56838 2.73566 2.61478 2.67698 2.67347C2.6183 2.73215 2.57189 2.80193 2.54046 2.87874C2.50904 2.95555 2.49323 3.03785 2.49395 3.12084C2.49467 3.20383 2.51191 3.28584 2.54466 3.36209C2.57742 3.43834 2.62503 3.50731 2.68473 3.56496C2.8026 3.67881 2.96048 3.74181 3.12435 3.74039C3.28823 3.73896 3.44498 3.67323 3.56086 3.55735C3.67674 3.44147 3.74248 3.28471 3.7439 3.12084C3.74532 2.95697 3.68233 2.79909 3.56848 2.68121Z" fill="#727272"/>
</svg>
