<svg width="26" height="20" viewBox="0 0 26 20" fill="none" xmlns="http://www.w3.org/2000/svg">
<path fill-rule="evenodd" clip-rule="evenodd" d="M10.722 4.37409C10.7221 4.03515 10.8141 3.70256 10.9881 3.41171C11.1622 3.12087 11.4118 2.88264 11.7105 2.72237C12.0091 2.56211 12.3457 2.4858 12.6842 2.50157C13.0228 2.51733 13.3508 2.62458 13.6333 2.81191C13.9158 2.99924 14.1422 3.25963 14.2884 3.56539C14.4347 3.87116 14.4954 4.21085 14.464 4.54834C14.4325 4.88583 14.3102 5.20849 14.11 5.482C13.9098 5.75551 13.6392 5.96963 13.327 6.10159C12.647 6.38909 11.7258 7.03534 11.437 8.07659L11.4245 8.08534L0.707026 16.6603C-0.676724 17.7678 0.107026 19.9991 1.87828 19.9991H23.3158C25.0883 19.9991 25.8708 17.7678 24.487 16.6603L14.2158 8.44409C14.2433 8.43034 14.272 8.41659 14.302 8.40409C15.0303 8.09591 15.6614 7.59608 16.1283 6.95778C16.5951 6.31948 16.8803 5.56658 16.9533 4.77915C17.0264 3.99173 16.8846 3.19922 16.5432 2.48593C16.2017 1.77264 15.6733 1.16524 15.0141 0.728334C14.355 0.291426 13.5897 0.0413487 12.7998 0.00470122C12.0098 -0.0319463 11.2247 0.146206 10.5279 0.52021C9.83114 0.894215 9.24876 1.45008 8.84273 2.1287C8.4367 2.80731 8.22219 3.58329 8.22203 4.37409C8.22203 4.70562 8.35372 5.02356 8.58814 5.25798C8.82256 5.4924 9.14051 5.62409 9.47203 5.62409C9.80355 5.62409 10.1215 5.4924 10.3559 5.25798C10.5903 5.02356 10.722 4.70562 10.722 4.37409ZM12.597 10.3491L21.5345 17.4991H3.65953L12.597 10.3491Z" fill="#727272"/>
</svg>
