<svg width="28" height="28" viewBox="0 0 28 28" fill="none" xmlns="http://www.w3.org/2000/svg">
<g clip-path="url(#clip0_16_168)">
<path d="M14 3.5C16.6997 3.5 19.1987 3.976 21.0677 4.79383C21.9998 5.20217 22.8282 5.71783 23.4383 6.35017C24.0042 6.9335 24.4242 7.66617 24.4907 8.5155L24.5 8.75V20.4167C24.5 21.3663 24.0555 22.1783 23.4383 22.8165C22.8282 23.4488 21.9998 23.9645 21.0677 24.3728C19.1987 25.1895 16.6997 25.6667 14 25.6667C11.3003 25.6667 8.80133 25.1907 6.93233 24.3728C6.00017 23.9645 5.17183 23.4488 4.56167 22.8165C3.99583 22.2332 3.57583 21.5005 3.50933 20.6512L3.5 20.4167V8.75C3.5 7.80033 3.9445 6.98833 4.56167 6.35017C5.17183 5.71783 6.00017 5.20217 6.93233 4.79383C8.80133 3.97717 11.3003 3.5 14 3.5ZM22.1667 17.9748C21.813 18.1867 21.4459 18.3754 21.0677 18.5395C19.1987 19.3562 16.6997 19.8333 14 19.8333C11.3003 19.8333 8.80133 19.3573 6.93233 18.5395C6.55411 18.3754 6.18699 18.1868 5.83333 17.9748V20.4167C5.83333 20.594 5.91033 20.8553 6.23933 21.1948C6.573 21.5402 7.112 21.9042 7.868 22.2355C9.37767 22.8958 11.5442 23.3333 14 23.3333C16.4558 23.3333 18.6223 22.8958 20.132 22.2355C20.888 21.9042 21.427 21.5402 21.7607 21.1948C22.0897 20.8565 22.1667 20.594 22.1667 20.4167V17.9748ZM22.1667 12.1415C21.813 12.3534 21.4459 12.542 21.0677 12.7062C19.1987 13.5228 16.6997 14 14 14C11.3003 14 8.80133 13.524 6.93233 12.7062C6.55411 12.5421 6.18699 12.3534 5.83333 12.1415V14.5833C5.83333 14.7607 5.91033 15.022 6.23933 15.3615C6.573 15.7068 7.112 16.0708 7.868 16.4022C9.37767 17.0625 11.5442 17.5 14 17.5C16.4558 17.5 18.6223 17.0625 20.132 16.4022C20.888 16.0708 21.427 15.7068 21.7607 15.3615C22.0897 15.0232 22.1667 14.7607 22.1667 14.5833V12.1415ZM14 5.83333C11.5442 5.83333 9.37767 6.27083 7.868 6.93117C7.112 7.2625 6.573 7.6265 6.23933 7.97183C5.91033 8.31017 5.83333 8.57267 5.83333 8.75C5.83333 8.92733 5.91033 9.18867 6.23933 9.52817C6.573 9.8735 7.112 10.2375 7.868 10.5688C9.37767 11.2292 11.5442 11.6667 14 11.6667C16.4558 11.6667 18.6223 11.2292 20.132 10.5688C20.888 10.2375 21.427 9.8735 21.7607 9.52817C22.0897 9.18983 22.1667 8.92733 22.1667 8.75C22.1667 8.57267 22.0897 8.31133 21.7607 7.97183C21.427 7.6265 20.888 7.2625 20.132 6.93117C18.6223 6.27083 16.4558 5.83333 14 5.83333Z" fill="#2400FF"/>
</g>
<defs>
<clipPath id="clip0_16_168">
<rect width="28" height="28" fill="white"/>
</clipPath>
</defs>
</svg>
