<svg width="23" height="26" viewBox="0 0 23 26" fill="none" xmlns="http://www.w3.org/2000/svg">
<path fill-rule="evenodd" clip-rule="evenodd" d="M11.25 2.5C8.92936 2.5 6.70376 3.42187 5.06282 5.06281C3.42187 6.70376 2.5 8.92936 2.5 11.25V13.75C2.5 14.0815 2.3683 14.3995 2.13388 14.6339C1.89946 14.8683 1.58152 15 1.25 15C0.918479 15 0.600537 14.8683 0.366116 14.6339C0.131696 14.3995 0 14.0815 0 13.75V11.25C4.44604e-08 8.26631 1.18526 5.40483 3.29505 3.29505C5.40483 1.18526 8.26631 0 11.25 0C14.2337 0 17.0952 1.18526 19.205 3.29505C21.3147 5.40483 22.5 8.26631 22.5 11.25V15C22.4827 16.1018 22.4005 17.2016 22.2537 18.2938C22.0175 20.025 21.5225 22.345 20.375 23.875C20.1761 24.1402 19.88 24.3156 19.5518 24.3624C19.2236 24.4093 18.8902 24.3239 18.625 24.125C18.3598 23.9261 18.1844 23.63 18.1376 23.3018C18.0907 22.9736 18.1761 22.6402 18.375 22.375C19.1025 21.405 19.545 19.6625 19.7775 17.9562C19.9087 16.976 19.983 15.9889 20 15V11.25C20 8.92936 19.0781 6.70376 17.4372 5.06281C15.7962 3.42187 13.5706 2.5 11.25 2.5ZM11.25 7.5C10.2554 7.5 9.30161 7.89509 8.59835 8.59835C7.89509 9.30161 7.5 10.2554 7.5 11.25V12.5C7.5 13.675 7.12 15.125 6.415 16.4475C5.70625 17.7763 4.60375 19.095 3.05875 19.8675C2.9114 19.947 2.7496 19.996 2.58294 20.0117C2.41627 20.0275 2.24815 20.0096 2.08854 19.9591C1.92892 19.9086 1.78108 19.8266 1.65377 19.7179C1.52646 19.6092 1.42228 19.476 1.34742 19.3263C1.27255 19.1766 1.22852 19.0133 1.21795 18.8462C1.20737 18.6792 1.23046 18.5117 1.28585 18.3537C1.34123 18.1957 1.42778 18.0505 1.54037 17.9266C1.65295 17.8027 1.78928 17.7027 1.94125 17.6325C2.89625 17.155 3.66875 16.2862 4.21 15.27C4.755 14.25 5 13.2 5 12.5V11.25C5 9.5924 5.65848 8.00268 6.83058 6.83058C8.00268 5.65848 9.5924 5 11.25 5C12.9076 5 14.4973 5.65848 15.6694 6.83058C16.8415 8.00268 17.5 9.5924 17.5 11.25V12.6462C17.5 16.3013 17.5013 21.2087 13.3 24.71C13.1746 24.8197 13.0284 24.9033 12.8702 24.9557C12.712 25.0082 12.5449 25.0284 12.3787 25.0153C12.2126 25.0022 12.0507 24.956 11.9027 24.8795C11.7546 24.8029 11.6234 24.6975 11.5167 24.5694C11.41 24.4414 11.33 24.2933 11.2813 24.1339C11.2327 23.9744 11.2165 23.8069 11.2335 23.6411C11.2506 23.4753 11.3007 23.3146 11.3808 23.1684C11.4609 23.0223 11.5694 22.8936 11.7 22.79C14.9425 20.0875 15 16.33 15 12.5V11.25C15 10.2554 14.6049 9.30161 13.9017 8.59835C13.1984 7.89509 12.2446 7.5 11.25 7.5ZM12.5 11.875C12.5 11.5435 12.3683 11.2255 12.1339 10.9911C11.8995 10.7567 11.5815 10.625 11.25 10.625C10.9185 10.625 10.6005 10.7567 10.3661 10.9911C10.1317 11.2255 10 11.5435 10 11.875C10 13.3713 9.84875 15.2525 9.2825 16.9487C8.72 18.6413 7.79 20.02 6.31625 20.7575C6.16428 20.8277 6.02795 20.9277 5.91537 21.0516C5.80278 21.1755 5.71623 21.3207 5.66084 21.4787C5.60546 21.6367 5.58237 21.8042 5.59295 21.9712C5.60352 22.1383 5.64755 22.3016 5.72242 22.4513C5.79728 22.601 5.90146 22.7342 6.02877 22.8429C6.15608 22.9516 6.30393 23.0336 6.46354 23.0841C6.62315 23.1346 6.79128 23.1525 6.95794 23.1367C7.1246 23.121 7.2864 23.072 7.43375 22.9925C9.71 21.855 10.9688 19.7975 11.655 17.7388C12.3388 15.685 12.5 13.5037 12.5 11.875Z" fill="#727272"/>
</svg>
