<svg width="25" height="22" viewBox="0 0 25 22" fill="none" xmlns="http://www.w3.org/2000/svg">
<path fill-rule="evenodd" clip-rule="evenodd" d="M10 0C9.00544 0 8.05161 0.395088 7.34835 1.09835C6.64509 1.80161 6.25 2.75544 6.25 3.75H2.5C1.83696 3.75 1.20107 4.01339 0.732233 4.48223C0.263392 4.95107 0 5.58696 0 6.25V18.75C0 19.413 0.263392 20.0489 0.732233 20.5178C1.20107 20.9866 1.83696 21.25 2.5 21.25H22.5C23.163 21.25 23.7989 20.9866 24.2678 20.5178C24.7366 20.0489 25 19.413 25 18.75V6.25C25 5.58696 24.7366 4.95107 24.2678 4.48223C23.7989 4.01339 23.163 3.75 22.5 3.75H18.75C18.75 2.75544 18.3549 1.80161 17.6517 1.09835C16.9484 0.395088 15.9946 0 15 0H10ZM10 2.5C9.66848 2.5 9.35054 2.6317 9.11612 2.86612C8.8817 3.10054 8.75 3.41848 8.75 3.75H16.25C16.25 3.41848 16.1183 3.10054 15.8839 2.86612C15.6495 2.6317 15.3315 2.5 15 2.5H10ZM22.5 6.25V11.25H2.5V6.25H22.5ZM2.5 13.75V18.75H22.5V13.75H2.5Z" fill="#727272"/>
</svg>
